<?xml version="1.0" encoding="UTF-8"?>
<svg width="235px" height="56px" viewBox="0 0 235 56" version="1.1" xmlns="http://www.w3.org/2000/svg" xmlns:xlink="http://www.w3.org/1999/xlink">
    <!-- Generator: Sketch 46.2 (44496) - http://www.bohemiancoding.com/sketch -->
    <title>logo2</title>
    <desc>Created with Sketch.</desc>
    <defs>
        <polygon id="path-1" points="0.167007081 38.8119127 21.7354589 38.8119127 21.7354589 0.0297171809 0.167007081 0.0297171809"></polygon>
        <polygon id="path-3" points="42.262512 0.548001036 0 0.548001036 0 50.5984995 42.262512 50.5984995 42.262512 0.548001036"></polygon>
    </defs>
    <g id="Welcome" stroke="none" stroke-width="1" fill="none" fill-rule="evenodd">
        <g id="imassage-customer" transform="translate(-145.000000, -366.000000)">
            <g id="banner" transform="translate(0.000000, 100.000000)">
                <g id="banner_txt" transform="translate(144.000000, 266.000000)">
                    <g id="logo2" transform="translate(1.000000, 0.000000)">
                        <g id="logo">
                            <path d="M71.7863979,16.8602425 C68.0992662,16.8602425 65.1582501,18.6589139 63.1973796,22.0871065 C62.3840672,18.821113 59.8601344,16.8602425 56.2969691,16.8602425 C52.6949918,16.8602425 50.0227627,18.3669557 48.0178667,21.566911 L48.0178667,17.708891 L47.8006359,17.5449541 C47.4269988,17.2645815 46.8482958,17.2645815 46.4740794,17.5449541 L46.2568486,17.708891 L46.2568486,43.2847829 L46.4740794,43.4487198 C46.8482958,43.7290924 47.4269988,43.7290924 47.8006359,43.4487198 L48.0178667,43.2847829 L48.0178667,25.371637 C49.8194346,20.7669222 52.4372112,18.6218399 56.2494679,18.6218399 C59.7124174,18.6218399 61.698197,20.7651843 61.698197,24.5021343 L61.698197,43.2847829 L61.9154279,43.4481405 C62.2884857,43.7296717 62.8689265,43.7290924 63.2425636,43.4487198 L63.4603737,43.2847829 L63.4603737,25.5135612 C65.2509352,20.8121062 67.8831939,18.6218399 71.7388968,18.6218399 C75.2018462,18.6218399 77.1882052,20.7651843 77.1882052,24.5021343 L77.1882052,43.2842036 L77.4048568,43.4475612 C77.5913856,43.5889061 77.8271535,43.6659507 78.0687142,43.6659507 C78.310275,43.6659507 78.5454636,43.5889061 78.7319925,43.4481405 L78.9492233,43.2847829 L78.9492233,24.4540539 C78.9492233,19.7699773 76.2045839,16.8602425 71.7863979,16.8602425" id="Fill-1" fill="#FFFFFF"></path>
                            <path d="M101.694394,30.8716326 L101.694394,33.0862287 C101.694394,38.6403872 98.1173264,42.3721237 92.7925637,42.3721237 C88.9385987,42.3721237 86.8155291,40.300031 86.8155291,36.5393304 C86.8155291,32.6488706 89.6233103,30.4186339 94.5194041,30.4186339 C97.2536165,30.4186339 99.9895667,30.636444 101.694394,30.8716326 M95.190213,16.8605321 C91.2122816,16.8605321 87.4961858,18.1308981 87.3397796,18.1847714 L86.9725146,18.3116342 L86.9725146,18.6997533 C86.9725146,19.0206757 87.096481,19.6260257 87.5604861,19.8583179 L87.777717,19.967223 L88.0036371,19.8791721 C88.0354976,19.8664278 91.2719477,18.6221295 95.0946314,18.6221295 C99.9055708,18.6221295 101.694394,20.4879977 101.694394,25.5092165 L101.694394,29.2090925 C99.6952913,28.9768003 96.8788209,28.7531973 94.3270824,28.7531973 C88.6072492,28.7531973 85.0539317,31.736501 85.0539317,36.5393304 C85.0539317,41.3653311 87.9619287,44.1337211 93.0318072,44.1337211 C96.6934505,44.1337211 100.000573,42.2498951 101.742475,39.3963506 L101.742475,43.3974533 L102.043702,43.5480667 C102.383161,43.7183757 102.816464,43.7183757 103.155924,43.5480667 L103.456571,43.3974533 L103.456571,25.5092165 C103.456571,19.5275477 100.90715,16.8605321 95.190213,16.8605321" id="Fill-3" fill="#FFFFFF"></path>
                            <path d="M118.217263,29.4251068 L118.122261,29.3973013 C117.95311,29.3480623 117.762526,29.2959269 117.556302,29.2397365 C115.385731,28.6459721 111.753631,27.6513445 111.753631,24.1188811 C111.753631,20.4195845 114.022101,18.6220716 118.688799,18.6220716 C121.56088,18.6220716 123.976487,19.5796252 124.000238,19.589473 L124.228475,19.6809996 L124.448023,19.570936 C124.895808,19.347333 125.123466,18.6933233 125.020933,18.280295 L124.951999,18.0062945 L124.689005,17.9037616 C124.57952,17.861474 121.966378,16.8604742 118.641298,16.8604742 C113.063968,16.8604742 109.991455,19.4382803 109.991455,24.1188811 C109.991455,29.025402 114.775747,30.3351593 117.628712,31.1166111 L118.064332,31.2399982 C121.385358,32.1743805 124.521592,33.057786 124.521592,36.9221781 C124.521592,41.4266771 120.69775,42.3720658 117.490264,42.3720658 C114.222532,42.3720658 112.063547,41.5361614 111.06834,41.038558 L110.824462,40.9169087 L110.580585,41.038558 C110.169294,41.2442032 109.880812,41.9034264 110.01926,42.3216682 L110.087615,42.5278927 L110.279358,42.6304257 C110.394056,42.6918296 113.136957,44.1336632 117.585845,44.1336632 C123.113357,44.1336632 126.283769,41.5054595 126.283769,36.9221781 C126.283769,31.7590351 121.81113,30.4649185 118.217263,29.4251068" id="Fill-5" fill="#FFFFFF"></path>
                            <path d="M139.462325,29.4251068 L139.367322,29.3973013 C139.198172,29.3480623 139.007588,29.2959269 138.801364,29.2397365 C136.630793,28.6459721 132.998693,27.6513445 132.998693,24.1188811 C132.998693,20.4195845 135.267162,18.6220716 139.93386,18.6220716 C142.805942,18.6220716 145.221549,19.5796252 145.2453,19.589473 L145.473537,19.6809996 L145.693085,19.570936 C146.14087,19.347333 146.368528,18.6933233 146.265995,18.280295 L146.19706,18.0062945 L145.934066,17.9037616 C145.824582,17.861474 143.21144,16.8604742 139.886939,16.8604742 C134.30845,16.8604742 131.235937,19.4382803 131.235937,24.1188811 C131.235937,29.0248228 136.020809,30.3351593 138.874353,31.1166111 L139.309394,31.2399982 C142.630419,32.1743805 145.766654,33.057786 145.766654,36.9221781 C145.766654,41.4266771 141.942811,42.3720658 138.735325,42.3720658 C135.467594,42.3720658 133.308609,41.5361614 132.313402,41.038558 L132.069524,40.9169087 L131.825646,41.038558 C131.414935,41.2442032 131.125873,41.9028471 131.263163,42.3210889 L131.332098,42.5273134 L131.52442,42.6304257 C131.638538,42.6918296 134.382019,44.1336632 138.830907,44.1336632 C144.358418,44.1336632 147.52883,41.5054595 147.52883,36.9221781 C147.52883,31.7590351 143.056192,30.4649185 139.462325,29.4251068" id="Fill-7" fill="#FFFFFF"></path>
                            <path d="M168.690881,30.8716326 L168.690881,33.0862287 C168.690881,38.6403872 165.113234,42.3721237 159.788471,42.3721237 C155.934506,42.3721237 153.812016,40.300031 153.812016,36.5393304 C153.812016,32.6488706 156.619797,30.4186339 161.514732,30.4186339 C164.248944,30.4186339 166.985474,30.636444 168.690881,30.8716326 M162.1867,16.8605321 C158.208768,16.8605321 154.491514,18.1308981 154.335108,18.1847714 L153.968422,18.3116342 L153.968422,18.6997533 C153.968422,19.0206757 154.092388,19.6248671 154.556973,19.8583179 L154.774204,19.9678022 L155.000124,19.8791721 C155.031984,19.8664278 158.258007,18.6221295 162.090539,18.6221295 C166.902057,18.6221295 168.690881,20.4879977 168.690881,25.5092165 L168.690881,29.2090925 C166.691778,28.9768003 163.875307,28.7531973 161.323569,28.7531973 C155.603156,28.7531973 152.049839,31.736501 152.049839,36.5393304 C152.049839,41.3653311 154.957836,44.1337211 160.028873,44.1337211 C163.689358,44.1337211 166.99648,42.2504744 168.738382,39.3969299 L168.738382,43.3974533 L169.03903,43.5480667 C169.378489,43.7183757 169.81353,43.7183757 170.15241,43.5474874 L170.452478,43.3962948 L170.452478,25.5092165 C170.452478,19.5275477 167.903057,16.8605321 162.1867,16.8605321" id="Fill-9" fill="#FFFFFF"></path>
                            <g id="Group-13" transform="translate(176.101813, 16.830641)">
                                <mask id="mask-2" fill="white">
                                    <use xlink:href="#path-1"></use>
                                </mask>
                                <g id="Clip-12"></g>
                                <path d="M10.1109667,15.2793232 C5.64238319,15.2793232 3.07963838,12.8382277 3.07963838,8.58282004 C3.07963838,4.29728973 5.64238319,1.83881574 10.1109667,1.83881574 C14.5795502,1.83881574 17.1428743,4.29728973 17.1428743,8.58282004 C17.1428743,12.8382277 14.5795502,15.2793232 10.1109667,15.2793232 L10.1109667,15.2793232 Z M1.97668492,31.1221143 C1.97668492,28.636414 3.33568115,26.2706252 5.71537275,24.593603 C7.20586606,25.1780988 9.10996691,25.3895368 11.1194971,25.6125605 C15.5492687,26.1043711 19.7328454,26.567797 19.7328454,30.7861305 C19.7328454,34.5045435 15.7120471,37.0024087 9.7280611,37.0024087 C4.87425488,37.0024087 1.97668492,34.8040324 1.97668492,31.1221143 L1.97668492,31.1221143 Z M21.3177617,0.0662119646 L15.1484054,1.20102595 C13.7691343,0.434056212 12.0330253,0.0297171809 10.1109667,0.0297171809 C4.57476595,0.0297171809 1.26996054,3.22677608 1.26996054,8.58282004 C1.26996054,11.9357059 2.63011533,14.5123535 5.11929129,15.9240644 C3.69657401,17.456266 2.94872059,19.1500874 2.94872059,20.8595494 C2.94872059,21.9520758 3.34147397,22.8829824 4.09280309,23.5897068 C2.59419983,24.7841868 0.167007081,27.1146394 0.167007081,31.1701947 C0.167007081,34.8642778 2.69093997,38.8120865 9.77556225,38.8120865 C18.4607415,38.8120865 21.5419439,34.4628352 21.5419439,30.7380501 C21.5419439,24.9991006 15.9217472,24.37811 11.4050833,23.8793479 C7.26958711,23.4217149 4.75839843,22.9843568 4.75839843,20.7633885 C4.75839843,18.9490764 5.77851452,17.6566977 6.84671105,16.6319473 C7.87319925,16.9389669 8.9437129,17.0884217 10.1109667,17.0884217 C15.6471674,17.0884217 18.9525521,13.9093206 18.9525521,8.58282004 C18.9525521,6.19617705 18.2776883,4.18490897 16.9911023,2.69847064 L21.5848108,1.8631456 L21.6699653,1.52194833 C21.8014624,0.995380741 21.7278935,0.746289361 21.5124005,0.389451477 L21.3177617,0.0662119646 Z" id="Fill-11" fill="#FFFFFF" mask="url(#mask-2)"></path>
                            </g>
                            <path d="M203.605962,29.4239483 C203.869535,22.3856686 206.735824,18.6695727 211.917504,18.6695727 C217.137417,18.6695727 218.997492,22.3764 218.997492,25.844563 C218.997492,27.615429 218.848037,28.8411903 218.756511,29.4239483 L203.605962,29.4239483 Z M211.917504,16.8604742 C205.475885,16.8604742 201.781223,21.7785807 201.781223,30.353117 C201.781223,39.4976671 205.110937,44.1336632 211.67826,44.1336632 C216.679784,44.1336632 219.234418,41.7840942 219.341006,41.6838784 L219.512474,41.5228379 L219.512474,41.2870701 C219.512474,40.7888873 219.130148,40.3219858 218.642392,40.2246664 L218.387508,40.1736895 L218.187076,40.3399435 C218.163326,40.3590598 215.751773,42.3239853 211.821922,42.3239853 C206.339016,42.3239853 203.936732,39.101438 203.610017,31.2336261 L220.140416,31.2336261 L220.255693,30.8437691 C220.278864,30.7684624 220.80717,28.9593639 220.80717,25.9882251 C220.80717,20.4427558 217.317573,16.8604742 211.917504,16.8604742 L211.917504,16.8604742 Z" id="Fill-14" fill="#FFFFFF"></path>
                            <circle id="Oval-2" fill="#FFFFFF" cx="21.5" cy="12.5" r="3.5"></circle>
                            <rect id="Rectangle-4" fill="#FFFFFF" x="14" y="19.066439" width="13.7735948" height="26.8057082"></rect>
                            <g id="ico">
                                <g id="Group-18" transform="translate(0.000000, 0.031455)">
                                    <mask id="mask-4" fill="white">
                                        <use xlink:href="#path-3"></use>
                                    </mask>
                                    <g id="Clip-17"></g>
                                    <path d="M26.4527515,43.089391 L16.1345755,43.089391 L16.1345755,42.2303154 C17.1732287,42.2303154 17.8585196,42.1405266 18.1916069,41.962687 C18.5246942,41.7848473 18.8230246,41.4471257 19.086598,40.9518394 C19.2719684,40.4559738 19.3652328,39.5650376 19.3652328,38.279031 L19.3652328,30.0995652 C19.3652328,27.6677382 19.314256,26.183617 19.2134609,25.6495187 C19.113245,25.1154204 18.9348261,24.7475762 18.6799419,24.5454067 C18.4244784,24.344975 18.1023975,24.2436006 17.7154369,24.2436006 C17.2653346,24.2436006 16.738767,24.3681463 16.1345755,24.6149206 L15.8095982,23.7558449 L22.2234116,21.1994722 L23.2690161,21.1994722 L23.2690161,38.279031 C23.2690161,39.6119595 23.3466399,40.5023163 23.5013083,40.9518394 C23.6878372,41.3700812 23.9740026,41.7031685 24.3615425,41.950522 C24.7334417,42.1364717 25.4303183,42.2303154 26.4527515,42.2303154 L26.4527515,43.089391 Z M19.6438676,10.7891904 C20.1090313,10.2933248 20.6663008,10.0453919 21.3168348,10.0453919 C21.9523075,10.0453919 22.5020464,10.2701535 22.96721,10.7190972 C23.4312151,11.1686203 23.6646659,11.7258898 23.6646659,12.3920645 C23.6646659,12.9968352 23.4428008,13.5425191 23.001967,14.030854 C22.5605539,14.5186097 21.9992293,14.7630668 21.3168348,14.7630668 C20.7126434,14.7630668 20.1553738,14.5296161 19.6438676,14.0650317 C19.1787039,13.5697453 18.9464117,13.0124758 18.9464117,12.3920645 C18.9464117,11.8197336 19.1787039,11.285056 19.6438676,10.7891904 L19.6438676,10.7891904 Z M18.2906642,3.2764785 C10.0115619,6.79909404 4.62945019,11.1790474 4.62945019,11.1790474 C-6.84786961,19.2785722 5.384255,38.0450009 15.6775218,48.1123477 C25.9707887,58.1796944 36.9846826,35.5320744 41.3796973,18.459467 C45.7741327,1.38743899 33.0872715,-3.01800275 18.2906642,3.2764785 L18.2906642,3.2764785 Z" id="Fill-16" fill="#E43B36" mask="url(#mask-4)"></path>
                                </g>
                            </g>
                            <path d="M228.295031,10.1130521 C228.163533,10.0406418 227.979322,9.99487852 227.524585,9.99487852 L226.715907,9.99487852 L226.715907,11.8433683 L227.781786,11.8433683 C228.35991,11.8433683 228.689522,11.5015917 228.689522,10.9095652 C228.689522,10.5283975 228.557445,10.2578727 228.295031,10.1130521 L228.295031,10.1130521 Z M230.380447,15.239121 C230.414045,15.3051592 230.414045,15.3839416 230.373495,15.4430284 C230.341056,15.5090665 230.269225,15.5484577 230.196235,15.5484577 L229.196973,15.5484577 C229.117032,15.5484577 229.045201,15.5090665 229.012182,15.4366563 L227.735444,13.0349519 L226.715907,13.0349519 L226.715907,15.3381783 C226.715907,15.4563519 226.623801,15.5484577 226.505048,15.5484577 L225.623381,15.5484577 C225.505786,15.5484577 225.413101,15.4563519 225.413101,15.3381783 L225.413101,9.02110501 C225.413101,8.90235214 225.505786,8.81082554 225.623381,8.81082554 L227.558763,8.81082554 C228.248688,8.81082554 228.551073,8.86991234 228.808275,8.96839032 C229.551494,9.24470797 230.012023,9.97518293 230.012023,10.870174 C230.012023,11.6794314 229.610581,12.364143 228.972211,12.6798519 C228.992486,12.7122917 229.012182,12.7453108 229.031298,12.784702 L230.380447,15.239121 Z M221.724811,12.179352 C221.724811,15.4754682 224.402833,18.1540694 227.698949,18.1540694 C230.994486,18.1540694 233.672508,15.4754682 233.672508,12.179352 C233.672508,8.88381511 230.994486,6.20521385 227.698949,6.20521385 C224.402833,6.20521385 221.724811,8.88381511 221.724811,12.179352 L221.724811,12.179352 Z M227.698949,19.066439 C223.894223,19.066439 220.811862,15.9846573 220.811862,12.179352 C220.811862,8.37462599 223.894223,5.29284426 227.698949,5.29284426 C231.503096,5.29284426 234.585457,8.37462599 234.585457,12.179352 C234.585457,15.9846573 231.503096,19.066439 227.698949,19.066439 L227.698949,19.066439 Z" id="Fill-19" fill="#FFFFFF"></path>
                        </g>
                    </g>
                </g>
            </g>
        </g>
    </g>
</svg>