<?xml version="1.0" encoding="UTF-8" standalone="no"?>
<svg width="95px" height="87px" viewBox="0 0 95 87" version="1.1" xmlns="http://www.w3.org/2000/svg" xmlns:xlink="http://www.w3.org/1999/xlink">
    <!-- Generator: Sketch 46.2 (44496) - http://www.bohemiancoding.com/sketch -->
    <title>list</title>
    <desc>Created with Sketch.</desc>
    <defs></defs>
    <g id="Welcome" stroke="none" stroke-width="1" fill="none" fill-rule="evenodd">
        <g id="imassage-customer" transform="translate(-1138.000000, -974.000000)">
            <g id="features" transform="translate(212.000000, 917.000000)">
                <g id="4-panel">
                    <g id="p3" transform="translate(812.000000, 0.000000)">
                        <g id="list" transform="translate(114.000000, 57.000000)">
                            <g>
                                <path d="M94.3529499,0.425870895 L28.2795984,0.425870895 C28.1542617,0.425870895 28.0289249,0.530318179 28.0289249,0.676544375 L28.0289249,6.56737116 C28.0289249,6.6927079 28.1333722,6.81804464 28.2795984,6.81804464 L94.3529499,6.81804464 C94.4782866,6.81804464 94.6036234,6.71359736 94.6036234,6.56737116 L94.6036234,0.676544375 C94.6036234,0.530318179 94.4991761,0.425870895 94.3529499,0.425870895 Z" id="Shape" fill="#A5A7BB" fill-rule="nonzero"></path>
                                <path d="M28.2795984,17.4716675 L61.1804927,17.4716675 C61.3058294,17.4716675 61.4311662,17.3672203 61.4311662,17.2209941 L61.4311662,11.3301673 C61.4311662,11.2048305 61.3267189,11.0794938 61.1804927,11.0794938 L28.2795984,11.0794938 C28.1542617,11.0794938 28.0289249,11.1839411 28.0289249,11.3301673 L28.0289249,17.2209941 C28.0289249,17.3672203 28.1333722,17.4716675 28.2795984,17.4716675 Z" id="Shape" fill="#A5A7BB" fill-rule="nonzero"></path>
                                <path d="M94.3529499,35.0188112 L28.2795984,35.0188112 C28.1542617,35.0188112 28.0289249,35.1232584 28.0289249,35.2694846 L28.0289249,41.1603114 C28.0289249,41.2856482 28.1333722,41.4109849 28.2795984,41.4109849 L94.3529499,41.4109849 C94.4782866,41.4109849 94.6036234,41.3065376 94.6036234,41.1603114 L94.6036234,35.2694846 C94.6036234,35.1232584 94.4991761,35.0188112 94.3529499,35.0188112 Z" id="Shape" fill="#A5A7BB" fill-rule="nonzero"></path>
                                <path d="M28.2795984,52.0646078 L61.1804927,52.0646078 C61.3058294,52.0646078 61.4311662,51.9601605 61.4311662,51.8139343 L61.4311662,45.9231075 C61.4311662,45.7977708 61.3267189,45.6724341 61.1804927,45.6724341 L28.2795984,45.6724341 C28.1542617,45.6724341 28.0289249,45.7768813 28.0289249,45.9231075 L28.0289249,51.8139343 C28.0289249,51.9601605 28.1333722,52.0646078 28.2795984,52.0646078 Z" id="Shape" fill="#A5A7BB" fill-rule="nonzero"></path>
                                <path d="M94.3529499,69.6117514 L28.2795984,69.6117514 C28.1542617,69.6117514 28.0289249,69.7161987 28.0289249,69.8624249 L28.0289249,75.7532517 C28.0289249,75.8785884 28.1333722,76.0039252 28.2795984,76.0039252 L94.3529499,76.0039252 C94.4782866,76.0039252 94.6036234,75.8994779 94.6036234,75.7532517 L94.6036234,69.8624249 C94.6036234,69.7161987 94.4991761,69.6117514 94.3529499,69.6117514 Z" id="Shape" fill="#A5A7BB" fill-rule="nonzero"></path>
                                <path d="M61.1804927,80.2862638 L28.2795984,80.2862638 C28.1542617,80.2862638 28.0289249,80.3907111 28.0289249,80.5369373 L28.0289249,86.427764 C28.0289249,86.5531008 28.1333722,86.6784375 28.2795984,86.6784375 L61.1804927,86.6784375 C61.3058294,86.6784375 61.4311662,86.5739902 61.4311662,86.427764 L61.4311662,80.5369373 C61.4102767,80.3907111 61.3058294,80.2862638 61.1804927,80.2862638 Z" id="Shape" fill="#A5A7BB" fill-rule="nonzero"></path>
                                <g id="fav" transform="translate(0.000000, 1.000000)" fill="#E33A36">
                                    <g id="heart" transform="translate(0.032345, 0.000000)">
                                        <path d="M8.96327224,16.9681127 C8.7945283,16.9681127 8.63345013,16.8969191 8.51865768,16.7716792 L1.35407547,8.95167919 C1.35223181,8.94966474 1.35038814,8.94765029 1.34859299,8.94563584 C0.478916442,7.97049422 0,6.67819942 0,5.30675145 C0,3.93525434 0.478916442,2.64300867 1.34859299,1.66791618 L1.45746631,1.54586994 C2.34271698,0.55333526 3.52470081,0.00668208092 4.78571968,0.00668208092 C6.04673854,0.00668208092 7.22877089,0.55333526 8.11407008,1.54591908 L8.96327224,2.49811561 L9.81247439,1.54596821 C10.6977251,0.553384393 11.8797089,0.00673121387 13.1407763,0.00673121387 C14.4018437,0.00673121387 15.5838275,0.553384393 16.4691267,1.54601734 L16.5778544,1.66776879 C17.4476765,2.64310694 17.926593,3.9353526 17.926593,5.30680058 C17.926593,6.67824855 17.447628,7.97054335 16.578,8.94563584 C16.5762049,8.94774855 16.5743612,8.94976301 16.5725175,8.95177746 L9.40788679,16.7717775 C9.29309434,16.8968699 9.13201617,16.9681127 8.96327224,16.9681127 Z" id="Shape" fill-rule="nonzero"></path>
                                    </g>
                                </g>
                                <g id="fav" transform="translate(0.000000, 35.000000)" fill="#E33A36">
                                    <g id="heart" transform="translate(0.032345, 0.000000)">
                                        <path d="M8.96327224,16.9681127 C8.7945283,16.9681127 8.63345013,16.8969191 8.51865768,16.7716792 L1.35407547,8.95167919 C1.35223181,8.94966474 1.35038814,8.94765029 1.34859299,8.94563584 C0.478916442,7.97049422 0,6.67819942 0,5.30675145 C0,3.93525434 0.478916442,2.64300867 1.34859299,1.66791618 L1.45746631,1.54586994 C2.34271698,0.55333526 3.52470081,0.00668208092 4.78571968,0.00668208092 C6.04673854,0.00668208092 7.22877089,0.55333526 8.11407008,1.54591908 L8.96327224,2.49811561 L9.81247439,1.54596821 C10.6977251,0.553384393 11.8797089,0.00673121387 13.1407763,0.00673121387 C14.4018437,0.00673121387 15.5838275,0.553384393 16.4691267,1.54601734 L16.5778544,1.66776879 C17.4476765,2.64310694 17.926593,3.9353526 17.926593,5.30680058 C17.926593,6.67824855 17.447628,7.97054335 16.578,8.94563584 C16.5762049,8.94774855 16.5743612,8.94976301 16.5725175,8.95177746 L9.40788679,16.7717775 C9.29309434,16.8968699 9.13201617,16.9681127 8.96327224,16.9681127 Z" id="Shape" fill-rule="nonzero"></path>
                                    </g>
                                </g>
                                <g id="fav" transform="translate(0.000000, 70.000000)" fill="#E33A36">
                                    <g id="heart" transform="translate(0.032345, 0.000000)">
                                        <path d="M8.96327224,16.9681127 C8.7945283,16.9681127 8.63345013,16.8969191 8.51865768,16.7716792 L1.35407547,8.95167919 C1.35223181,8.94966474 1.35038814,8.94765029 1.34859299,8.94563584 C0.478916442,7.97049422 0,6.67819942 0,5.30675145 C0,3.93525434 0.478916442,2.64300867 1.34859299,1.66791618 L1.45746631,1.54586994 C2.34271698,0.55333526 3.52470081,0.00668208092 4.78571968,0.00668208092 C6.04673854,0.00668208092 7.22877089,0.55333526 8.11407008,1.54591908 L8.96327224,2.49811561 L9.81247439,1.54596821 C10.6977251,0.553384393 11.8797089,0.00673121387 13.1407763,0.00673121387 C14.4018437,0.00673121387 15.5838275,0.553384393 16.4691267,1.54601734 L16.5778544,1.66776879 C17.4476765,2.64310694 17.926593,3.9353526 17.926593,5.30680058 C17.926593,6.67824855 17.447628,7.97054335 16.578,8.94563584 C16.5762049,8.94774855 16.5743612,8.94976301 16.5725175,8.95177746 L9.40788679,16.7717775 C9.29309434,16.8968699 9.13201617,16.9681127 8.96327224,16.9681127 Z" id="Shape" fill-rule="nonzero"></path>
                                    </g>
                                </g>
                            </g>
                        </g>
                    </g>
                </g>
            </g>
        </g>
    </g>
</svg>