<?xml version="1.0" encoding="UTF-8" standalone="no"?>
<svg width="107px" height="102px" viewBox="0 0 107 102" version="1.1" xmlns="http://www.w3.org/2000/svg" xmlns:xlink="http://www.w3.org/1999/xlink">
    <!-- Generator: Sketch 46.2 (44496) - http://www.bohemiancoding.com/sketch -->
    <title>therapist-centric</title>
    <desc>Created with Sketch.</desc>
    <defs></defs>
    <g id="Welcome" stroke="none" stroke-width="1" fill="none" fill-rule="evenodd">
        <g id="imassage-customer" transform="translate(-730.000000, -957.000000)">
            <g id="features" transform="translate(212.000000, 917.000000)">
                <g id="4-panel">
                    <g id="p2" transform="translate(410.000000, 0.000000)">
                        <g id="therapist-centric" transform="translate(108.000000, 37.000000)">
                            <g>
                                <path d="M15.3261765,45.2547059 C13.9414706,44.3420588 9.34676471,44.1532353 9.78735294,44.6882353 C9.34676471,45.4435294 8.87470588,46.2932353 8.49705882,47.1429412 C7.01794118,47.7408824 6.10529412,49.4402941 5.16117647,50.6361765 C4.21705882,51.8320588 0.346176471,55.4197059 2.04558824,56.6470588 C4.91688528,57.1802056 7.86970666,57.0835679 10.7,56.3638235 L12.6511765,56.5211765 L16.1444118,56.8988235 C16.7628044,56.9350093 17.3827838,56.9350093 18.0011765,56.8988235 L18.4102941,56.8988235 L18.6935294,56.8988235 L19.1655882,56.6470588 C19.6283617,55.4384829 19.8940002,54.1634184 19.9523529,52.8705882 C19.8954553,49.6837685 18.1280325,46.7741336 15.3261765,45.2547059 Z M6.45147059,51.8635294 C6.45147059,52.0838235 6.45147059,52.3041176 6.45147059,52.5244118 L5.44441176,53.0594118 L6.45147059,51.8635294 Z" id="Shape" fill="#502410" fill-rule="nonzero"></path>
                                <path d="M47.3002941,4.75205882 C46.7022307,4.01378939 45.8691647,3.50284221 44.94,3.30441176 C43.8900185,2.96178037 42.7433391,3.0879151 41.7929412,3.65058824 C40.8046352,4.45063508 40.3948813,5.76681429 40.7544118,6.98647059 C40.8847212,7.4476644 41.2715524,7.79082591 41.7449922,7.86522359 C42.218432,7.93962128 42.6918705,7.73164501 42.9573529,7.33264706 L43.3035294,7.33264706 C43.7740851,7.27937134 44.2491502,7.27937134 44.7197059,7.33264706 L45.3491176,7.71029412 C45.7735752,8.01009801 46.3408366,8.01009801 46.7652941,7.71029412 C47.2395053,7.39772566 47.5650361,6.9046035 47.6661121,6.3457127 C47.7671881,5.78682191 47.6349916,5.21091926 47.3002941,4.75205882 L47.3002941,4.75205882 Z" id="Shape" fill="#231F20" fill-rule="nonzero"></path>
                                <path d="M43.4294118,99.3841176 C44.4364706,98.2197059 47.2688235,98.7547059 48.5591176,98.975 C49.0496615,99.045151 49.5476914,99.045151 50.0382353,98.975 C50.2270588,98.975 51.2970588,98.975 51.2970588,98.5658824 C51.3090221,98.2467753 51.5474412,97.9818652 51.8635294,97.9364706 C51.7959021,97.6505553 51.9078135,97.3521248 52.1467647,97.1811765 L52.1467647,97.1811765 C52.3670588,97.1811765 52.1467647,96.4888235 52.1467647,96.5832353 C52.1467647,96.6776471 53.2167647,98.5973529 53.3426471,99.1323529 C53.6888235,100.642941 52.5873529,101.083529 51.6432353,101.083529 C48.9118733,101.234748 46.1724066,101.033783 43.4923529,100.485588 C43.3125823,100.364749 43.1997263,100.166739 43.1873688,99.9504823 C43.1750112,99.7342257 43.2645765,99.5246488 43.4294118,99.3841176 L43.4294118,99.3841176 Z" id="Shape" fill="#2E2786" fill-rule="nonzero"></path>
                                <path d="M52.3985294,99.1323529 C50.6676291,99.6032269 48.8423709,99.6032269 47.1114706,99.1323529 C47.1114706,99.1323529 45.7267647,98.8805882 45.8841176,98.7861765 C48.0555882,97.7791176 49.5347059,98.0623529 50.1326471,95.9538235 C50.2569368,95.6679716 50.5569205,95.5004185 50.8654916,95.5445 C51.1740627,95.5885816 51.4151322,95.833428 51.4544118,96.1426471 C51.5234806,95.8242339 51.8052113,95.5970632 52.1310294,95.5970632 C52.4568476,95.5970632 52.7385782,95.8242339 52.8076471,96.1426471 C52.8076471,96.8979412 53.5314706,98.0938235 52.8076471,98.6917647 L52.3985294,99.1323529 Z" id="Shape" fill="#FCA851" fill-rule="nonzero"></path>
                                <path d="M57.0247059,96.2370588 C57.0247059,95.8908824 57.3079412,97.0867647 57.5597059,97.0552941 C58.0495541,96.9759648 58.5489753,96.9759648 59.0388235,97.0552941 C59.0388235,96.6147059 59.0388235,95.4188235 59.3535294,95.765 C60.3300692,97.2267544 60.8453428,98.9479874 60.8326471,100.705882 C60.8326471,102.185 60.8326471,103.852941 59.6997059,104.702647 C57.7485294,105.992941 57.0561765,102.594118 56.9302941,100.863235 C56.8154652,99.3216588 56.8470772,97.7726668 57.0247059,96.2370588 L57.0247059,96.2370588 Z" id="Shape" fill="#2E2786" fill-rule="nonzero"></path>
                                <path d="M57.4652941,96.5202941 C57.6855882,96.1426471 57.9688235,95.9538235 58.3779412,96.1741176 C58.7870588,96.3944118 58.9129412,95.7964706 59.1017647,95.8594118 C59.2905882,95.9223529 59.6052941,96.6147059 59.7311765,96.8979412 C60.0961824,97.7536806 60.3500147,98.65267 60.4864706,99.5729412 C60.6752941,100.926176 59.5738235,102.72 58.0317647,101.681471 C57.2356017,100.927831 56.8394157,99.8441457 56.9617647,98.7547059 C56.986385,97.9847087 57.1572659,97.2264247 57.4652941,96.5202941 L57.4652941,96.5202941 Z" id="Shape" fill="#FCA851" fill-rule="nonzero"></path>
                                <path d="M42.7370588,49.5347059 C42.9258824,48.5591176 43.1147059,47.615 43.2405882,46.6394118 C43.8070497,46.245938 44.4343321,45.9482446 45.0973529,45.7582353 C46.1273843,45.383522 47.2665743,45.4518734 48.2444118,45.9470588 L48.5276471,46.1673529 C48.9620638,45.9939665 49.4464656,45.9939665 49.8808824,46.1673529 C50.8337333,46.751079 51.5136134,47.6915797 51.7691176,48.7794118 C52.1263599,49.9662067 52.3377202,51.192096 52.3985294,52.43 C52.6091072,54.8066191 52.6091072,57.1972044 52.3985294,59.5738235 C52.2097059,61.4620588 51.8635294,63.3502941 51.7061765,65.27 C51.5639667,67.137653 51.6167023,69.0150397 51.8635294,70.8717647 C53.231986,79.3977314 53.9787584,88.0119089 54.0979412,96.6461765 C51.7691176,97.9994118 50.5417647,96.6461765 49.4088235,96.4258824 C48.7747176,92.4370169 48.4067479,88.4103764 48.3073529,84.3726471 C47.1168706,76.5666188 45.4031069,68.8494252 43.1776471,61.2732353 C42.8085554,59.9412162 42.535114,58.5845262 42.3594118,57.2135294 C42.0653491,54.6504656 42.1929189,52.0565466 42.7370588,49.5347059 L42.7370588,49.5347059 Z" id="Shape" fill="#463A9F" fill-rule="nonzero"></path>
                                <path d="M55.2623529,85.4111765 C54.2081658,77.8504628 52.7585313,70.3501805 50.9194118,62.9411765 C50.5732353,61.525 50.1955882,60.1402941 49.9123529,58.7241176 C49.6061906,57.2696595 49.3855183,55.7985107 49.2514706,54.3182353 L49.2514706,53.0594118 C48.1760756,51.8663717 47.5719631,50.3225288 47.5520588,48.7164706 C47.5845,48.3936445 47.8570226,48.1483741 48.1814706,48.15 L48.1814706,48.15 C48.1943314,47.8847691 48.3722659,47.6561413 48.6262179,47.5785448 C48.88017,47.5009484 49.1555026,47.5910779 49.3144118,47.8038235 L49.3144118,47.9926471 L49.3144118,47.8038235 C49.9614261,46.8567642 50.937186,46.1838263 52.0523529,45.9155882 C53.0823843,45.5408749 54.2215743,45.6092263 55.1994118,46.1044118 L55.4826471,46.3247059 L55.4826471,46.3247059 C55.8978256,46.2378114 56.3301694,46.29324 56.71,46.4820588 C57.7170588,46.9541176 59.1017647,51.4544118 59.1961765,52.7761765 C59.4070836,55.152781 59.4070836,57.5433954 59.1961765,59.92 C59.0073529,61.8082353 58.6611765,63.6964706 58.5038235,65.6161765 C58.3611556,67.4838185 58.4138925,69.3612529 58.6611765,71.2179412 L58.6611765,71.5955882 C60.0200134,79.7121744 60.7982621,87.9153361 60.99,96.1426471 C60.99,96.7720588 59.385,97.4644118 58.7241176,97.5588235 L58.7241176,97.5588235 C58.3788902,97.595074 58.0308157,97.595074 57.6855882,97.5588235 C56.936127,97.4505113 56.2053291,97.2386858 55.5141176,96.9294118 C55.644822,93.0883078 55.5607694,89.2429008 55.2623529,85.4111765 Z" id="Shape" fill="#5D4788" fill-rule="nonzero"></path>
                                <path d="M40.1879412,16.8682353 C37.6464999,14.9340314 36.9565327,11.403023 38.5829412,8.65441176 C39.3163262,7.5169702 40.4327083,6.6796836 41.73,6.29411765 C42.8772488,5.93850066 44.1126054,5.99414735 45.2232353,6.45147059 L45.2232353,6.45147059 C48.3702941,6.79764706 49.4717647,10.165 49.1885294,12.9658824 C49.026434,14.080435 48.6410964,15.1508172 48.0555882,16.1129412 C47.4998206,17.0100533 47.0559328,17.9718102 46.7338235,18.9767647 C46.6020838,19.6628508 46.6020838,20.3677374 46.7338235,21.0538235 L44.7511765,21.5573529 C43.5186243,19.7373617 41.9737261,18.1498456 40.1879412,16.8682353 Z" id="Shape" fill="#403946" fill-rule="nonzero"></path>
                                <path d="M44.0588235,23.2567647 C44.5912149,23.6296353 45.2510821,23.7729955 45.890195,23.6546413 C46.5293079,23.536287 47.0940815,23.1661415 47.4576471,22.6273529 C47.6778944,22.570176 47.8584338,22.4127569 47.9450727,22.2023483 C48.0317115,21.9919396 48.0143632,21.7530373 47.8982353,21.5573529 L47.8982353,21.4 C47.9115782,21.3060597 47.9115782,21.210705 47.8982353,21.1167647 C47.8982353,20.7705882 47.6779412,20.4244118 47.5520588,20.0467647 L47.5520588,19.6061765 L47.5520588,19.3229412 C47.4242212,19.0979493 47.2068805,18.9378035 46.9541176,18.8823529 L46.9541176,18.8823529 L46.9541176,18.6620588 C46.6079412,17.9067647 45.8526471,18.19 45.8211765,18.8823529 C45.675502,19.0114802 45.5853088,19.1918664 45.5694118,19.3858824 L45.5694118,19.3858824 C45.550482,19.5742314 45.550482,19.7640038 45.5694118,19.9523529 L45.5694118,19.9523529 C45.3337326,19.8317772 45.044934,19.9142911 44.9085294,20.1411765 L44.6252941,20.1411765 L44.6252941,20.1411765 L44.6252941,19.9208824 C44.2791176,19.4488235 43.6497059,19.7635294 43.6182353,20.3614706 C43.5893197,20.4963104 43.5893197,20.6357485 43.6182353,20.7705882 C43.6275671,20.9383017 43.6275671,21.1064042 43.6182353,21.2741176 L43.6182353,21.7147059 L43.6182353,21.7147059 C43.6182353,21.9664706 43.6182353,22.2182353 43.6182353,22.47 C43.6222744,22.7899745 43.7881178,23.0861235 44.0588235,23.2567647 Z" id="Shape" fill="#FCA851" fill-rule="nonzero"></path>
                                <path d="M43.3664706,20.7391176 C43.3758024,20.9068311 43.3758024,21.0749336 43.3664706,21.2426471 L43.3664706,21.6832353 L43.3664706,21.6832353 C43.3664706,21.6832353 45.1602941,23.9805882 47.4891176,21.1167647 L47.0170588,19.6376471 L47.0170588,19.3544118 C47.0382266,19.1942615 47.0165067,19.0313623 46.9541176,18.8823529 L46.9541176,18.8823529 L45.475,19.5117647 L44.3420588,19.9838235 L43.335,20.4244118 C43.3283031,20.5303272 43.338933,20.6366257 43.3664706,20.7391176 L43.3664706,20.7391176 Z" id="Shape" fill="#F09139" fill-rule="nonzero"></path>
                                <path d="M38.9920588,11.1720588 C39.1718046,10.9320576 39.3962073,10.7290267 39.6529412,10.5741176 C40.1879412,10.2279412 41.1635294,10.3223529 41.7614706,10.1020588 C42.3594118,9.88176471 44.1847059,9.03205882 45.1917647,9.75588235 C46.1988235,10.4797059 46.1673529,11.6441176 46.4820588,12.7141176 C46.4820588,12.9344118 46.4820588,13.1547059 46.7023529,13.3435294 L46.7023529,13.3435294 C46.8914127,13.0878286 47.17453,12.9179583 47.4891176,12.8714706 C47.7632139,12.8184284 48.0375351,12.9621204 48.15,13.2176471 C48.399989,14.0337735 48.1961045,14.921271 47.615,15.5464706 L47.615,15.5464706 C47.7247743,15.9040445 47.7882332,16.2742214 47.8038235,16.6479412 C47.7482174,17.9349376 47.2603824,19.1656123 46.4191176,20.1411765 C45.8111407,21.0651834 44.7020861,21.526251 43.6182353,21.3055882 C42.5409416,21.1182933 41.6174831,20.4286217 41.1320588,19.4488235 C40.4310931,18.5022134 39.9085341,17.4357663 39.59,16.3017647 C39.3067647,14.5708824 38.0164706,12.5882353 38.9920588,11.1720588 Z" id="Shape" fill="#FCA851" fill-rule="nonzero"></path>
                                <path d="M36.1911765,43.1776471 L35.5617647,43.9014706 C34.7015686,44.9085294 33.809902,45.8946078 32.8867647,46.8597059 C32.3832353,47.3947059 30.7782353,49.7235294 30.1488235,48.5905882 C29.9285294,48.2129412 30.1488235,48.2129412 30.1488235,47.7723529 C30.7027947,45.9872777 31.5309191,44.2991779 32.6035294,42.7685294 C33.5535133,41.3015504 34.6051075,39.9029301 35.7505882,38.5829412 C36.7576471,37.3870588 36.4114706,36.0023529 36.5373529,34.4917647 C36.6704413,32.4762423 36.975771,30.4758065 37.45,28.5123529 C37.7332353,27.3164706 38.2997059,24.075 39.6529412,23.54 C40.3138235,23.2567647 40.7229412,24.9876471 40.2823529,25.3338235 C40.6869833,26.4677993 40.9203314,27.6557534 40.9747059,28.8585294 C41.0230246,29.012173 41.0230246,29.1769446 40.9747059,29.3305882 C40.8573524,31.3567721 40.4656427,33.3576674 39.8102941,35.2785294 C39.4326471,36.6002941 39.1494118,37.9220588 38.7402941,39.2123529 C38.1651331,40.691705 37.2982278,42.0402244 36.1911765,43.1776471 L36.1911765,43.1776471 Z" id="Shape" fill="#FCA851" fill-rule="nonzero"></path>
                                <path d="M36.6632353,28.0717647 L35.845,36.7261765 C35.8282149,37.1055152 35.7429189,37.4786851 35.5932353,37.8276471 C35.4096017,38.1555381 35.1760178,38.4528267 34.9008824,38.7088235 C33.2489519,40.8282273 31.8643151,43.1430017 30.7782353,45.6008824 C30.7782353,46.5764706 32.2573529,46.5764706 33.0441176,47.1429412 C34.4592656,45.9558 35.7271201,44.6034219 36.8205882,43.1147059 C37.6564445,42.1544524 38.3748467,41.0979785 38.9605882,39.9676471 C39.3941583,38.9605423 39.7007291,37.9034015 39.8732353,36.8205882 C40.2993419,34.5163361 40.5100546,32.1774251 40.5026471,29.8341176 C40.5026471,28.4808824 41.0691176,23.9805882 39.3067647,23.54 C37.3870588,24.2323529 36.915,26.9073529 36.6632353,28.0717647 Z" id="Shape" fill="#30B89E" fill-rule="nonzero"></path>
                                <path d="M56.0176471,46.2932353 C56.1076379,46.8816078 56.4532635,47.4000462 56.9617647,47.7094118 C56.9617647,47.9297059 57.2135294,48.1185294 57.3079412,48.3388235 L57.3079412,48.5591176 L57.3079412,48.9052941 C57.3079412,49.22 57.4967647,49.5661765 57.5911765,49.8808824 C57.9181622,51.2705049 58.1598876,52.678818 58.315,54.0979412 L58.315,54.8217647 L58.315,55.4197059 C58.403608,56.4668544 58.403608,57.5196162 58.315,58.5667647 C58.1261765,60.5494118 57.7170588,62.4691176 57.5911765,64.4517647 C57.474799,68.6777237 57.8550496,72.9027311 58.7241176,77.04 C58.8814706,78.0470588 59.0702941,79.0226471 59.1961765,80.1870588 C59.3220588,81.3514706 59.3535294,81.2570588 59.4164706,81.7920588 L59.4164706,82.4844118 L59.4164706,82.8620588 C59.6052941,84.7502941 59.6052941,86.6385294 59.6052941,88.5267647 C59.6052941,90.415 59.6052941,91.8311765 59.6052941,93.4991176 C59.6052941,93.9082353 59.6052941,94.3173529 59.6052941,94.7264706 C59.5678526,95.1031896 59.5678526,95.4826927 59.6052941,95.8594118 C59.6052941,95.8594118 59.6052941,95.5132353 59.6052941,95.8594118 L59.6052941,95.8594118 L59.6052941,95.8594118 L59.6052941,96.0482353 L59.6052941,96.5202941 L59.6052941,96.9608824 L59.6052941,97.3070588 L59.6052941,97.0552941 C59.4816086,97.3031214 59.3966982,97.5684663 59.3535294,97.8420588 L59.3535294,97.8420588 C60.0144118,97.8420588 61.6194118,97.0238235 61.6194118,96.4258824 C61.4276739,88.1985714 60.6494252,79.9954097 59.2905882,71.8788235 L59.2905882,71.5011765 C59.0433043,69.6444882 58.9905674,67.7670537 59.1332353,65.8994118 C59.2905882,63.9797059 59.6367647,62.1229412 59.8255882,60.2032353 C60.0364953,57.8266307 60.0364953,55.4360163 59.8255882,53.0594118 C59.8255882,51.8635294 58.3464706,47.3632353 57.3394118,46.7652941 C56.9758415,46.4439584 56.5025227,46.2749159 56.0176471,46.2932353 Z" id="Shape" fill="#463A9F" fill-rule="nonzero"></path>
                                <path d="M41.8873529,46.8282353 C41.8873529,45.8526471 42.2964706,44.8770588 42.4538235,43.9014706 C42.6406321,42.8607677 42.6406321,41.7951147 42.4538235,40.7544118 C41.8587027,38.7825627 41.1440465,36.8487871 40.3138235,34.9638235 L40.3138235,34.9638235 L40.3138235,34.9638235 L40.3138235,34.5861765 C40.3138235,34.3658824 40.3138235,34.1455882 40.3138235,33.9252941 C40.3138235,33.705 40.3138235,33.4217647 40.3138235,33.17 L40.3138235,32.7294118 C40.3138235,31.7538235 40.3138235,30.7467647 40.4711765,29.7711765 C40.7405437,27.6627881 40.5799607,25.5216814 39.9991176,23.4770588 C40.9747059,23.005 42.1705882,22.8161765 43.1461765,22.4385294 C43.6824748,22.1353194 44.3201681,22.0669951 44.9085294,22.2497059 C45.2527743,22.4282426 45.6255129,22.545389 46.01,22.5958824 C46.7023529,22.5958824 47.0170588,22.0923529 47.5205882,21.7461765 C47.7088092,21.6097049 47.9230307,21.5133053 48.15,21.4629412 C48.6535294,21.4629412 49.2829412,21.7776471 49.7864706,21.9035294 C50.8564706,22.2182353 51.9579412,22.4385294 52.9335294,22.6902941 C53.4723067,22.7447247 53.9159005,23.137622 54.035,23.6658824 C54.1246553,24.4816617 54.1246553,25.3048089 54.035,26.1205882 C54.035,27.2220588 54.035,28.3235294 54.035,29.4564706 C54.035,31.6279412 53.4370588,33.7679412 53.3741176,35.9708824 C53.1140697,37.6595921 53.3891896,39.3873448 54.1608824,40.9117647 L55.9547059,44.0588235 C56.3546554,44.5446487 56.6831683,45.0851055 56.9302941,45.6638235 C57.2135294,46.8911765 54.7273529,47.7094118 53.7832353,48.1185294 C51.9475863,49.0802071 50.0176768,49.8500617 48.0241176,50.4158824 C46.8096511,50.7753181 45.544792,50.9347541 44.2791176,50.8879412 C43.4864609,50.8559788 42.7069909,50.6744584 41.9817647,50.3529412 C41.8887613,49.1804942 41.8572475,48.0039798 41.8873529,46.8282353 L41.8873529,46.8282353 Z" id="Shape" fill="#FCA851" fill-rule="nonzero"></path>
                                <path d="M61.5879412,64.4517647 C61.5879412,63.4132353 61.2417647,62.4376471 61.1788235,61.8082353 C61.1704751,57.3296103 60.4153137,52.8837303 58.9444118,48.6535294 C57.6541176,45.8526471 55.7973529,43.5238235 54.1923529,40.8802941 C53.3223471,39.4431314 52.9158024,37.7730021 53.0279412,36.0967647 L53.0279412,35.9079412 C53.0279412,34.9952941 53.2797059,34.0826471 53.4055882,33.17 C53.6101198,31.9856484 53.6944697,30.7836624 53.6573529,29.5823529 C53.6573529,29.5823529 51.7376471,27.7570588 51.7061765,26.75 C51.6747059,25.7429412 52.7447059,24.3897059 53.2797059,23.1623529 C54.0035294,22.9420588 48.7794118,21.5888235 48.4332353,21.5573529 C47.5343291,22.3470617 46.7027314,23.210239 45.9470588,24.1379412 C45.8356562,24.6383083 45.6666878,25.1240926 45.4435294,25.5855882 C45.4435294,25.3652941 44.0273529,23.2252941 43.4923529,22.2182353 C42.1966665,22.3831525 40.9457936,22.8001102 39.8102941,23.4455882 L39.1808824,23.7917647 C39.5701466,25.376451 39.6661394,27.0189933 39.4641176,28.6382353 C39.055,30.6208824 37.8276471,33.1070588 38.8976471,34.9323529 C39.2074623,35.3516494 39.5667239,35.732044 39.9676471,36.0652941 L39.9676471,36.0652941 L39.9676471,36.0652941 C40.209682,36.3737033 40.4106738,36.7122159 40.5655882,37.0723529 L40.9117647,37.9535294 C41.3598418,39.0497076 41.6460742,40.2052382 41.7614706,41.3838235 C42.2335294,46.4820588 42.0132353,51.6117647 42.265,56.71 C42.2951227,61.2577703 42.7800859,65.7911226 43.7126471,70.2423529 C43.8469406,71.0185564 44.3695604,71.6718311 45.0973529,71.9732353 C45.7262656,72.1784913 46.3881139,72.263891 47.0485294,72.225 C48.3388235,72.225 50.0067647,72.0676471 50.5102941,70.6514706 C50.7923902,69.4722241 50.7923902,68.24307 50.5102941,67.0638235 C49.9755612,64.7405489 49.6907077,62.3667694 49.6605882,59.9829412 C50.1918164,61.5436035 50.6021456,63.1428355 50.8879412,64.7664706 L52.1152941,69.7073529 C52.1955701,70.2859535 52.4352996,70.8307932 52.8076471,71.2808824 C53.9091176,72.3823529 56.6155882,70.5255882 57.6541176,69.9905882 C58.6926471,69.4555882 59.5423529,68.9835294 60.4235294,68.3855882 L60.7697059,68.1338235 C61.625713,67.112914 61.9309977,65.7391328 61.5879412,64.4517647 Z" id="Shape" fill="#30B89E" fill-rule="nonzero"></path>
                                <path d="M39.8102941,36.2226471 L39.8102941,36.2226471 C40.0529239,36.5306484 40.2539637,36.8692419 40.4082353,37.2297059 C41.1168549,37.1053667 41.7856882,36.8141005 42.3594118,36.38 C41.5224748,36.6677738 40.6054844,36.6111694 39.8102941,36.2226471 L39.8102941,36.2226471 Z" id="Shape" fill="#61CB98" fill-rule="nonzero"></path>
                                <path d="M60.7382353,68.2911765 C60.4235294,67.2211765 60.1088235,66.1197059 59.8885294,65.1441176 C59.385,62.7208824 59.2591176,60.2347059 58.9129412,57.78 C58.6124509,54.92703 57.8802737,52.1362677 56.7414706,49.5032353 C55.5160857,47.0024855 54.1284168,44.5845775 52.5873529,42.265 C51.7177617,40.1737921 51.3098439,37.9195096 51.3914706,35.6561765 C50.5437506,35.9349409 49.6148461,35.8072165 48.8738235,35.31 C49.6886767,35.2840481 50.4949743,35.1355196 51.2655882,34.8694118 C52.6188235,34.4288235 52.1782353,31.1244118 52.1152941,30.8411765 C52.3744544,31.7189415 52.7558405,32.5558721 53.2482353,33.3273529 C53.2482353,34.24 53.0279412,35.1211765 52.965,36.0338235 L52.965,36.2226471 C52.8817313,37.8705099 53.298594,39.5050507 54.1608824,40.9117647 C55.7029412,43.5552941 57.6226471,45.8841176 58.9129412,48.685 C60.3838431,52.9152008 61.1390045,57.3610809 61.1473529,61.8397059 C61.1473529,62.4691176 61.4305882,63.4761765 61.5564706,64.4832353 C61.9441806,65.8092843 61.6364445,67.2414407 60.7382353,68.2911765 Z" id="Shape" fill="#61CB98" fill-rule="nonzero"></path>
                                <path d="M27.2220588,49.1570588 C26.154435,49.7971815 25.2239388,50.6421148 24.4841176,51.6432353 C24.2952941,51.8635294 24.2008824,52.0838235 24.4841176,52.3041176 C25.2095592,51.9620463 25.8452955,51.4556124 26.3408824,50.825 C25.6973786,51.3448865 25.1626751,51.9865308 24.7673529,52.7132353 C24.9561765,52.9020588 25.3023529,52.7132353 25.4597059,52.4929412 C25.6170588,52.2726471 26.5297059,51.5488235 26.9702941,51.0138235 C26.3735675,51.5814977 25.9019363,52.2675067 25.5855882,53.0279412 C26.2779412,52.5244118 27.1591176,52.0838235 27.5367647,51.36 C27.1591176,51.895 26.4667647,52.2726471 26.215,52.8705882 C26.7822093,52.8264191 27.3112085,52.5675471 27.6941176,52.1467647 C28.3235294,51.6432353 29.0158824,51.2655882 29.6767647,50.7935294 C30.3618969,50.341576 30.8811365,49.6787169 31.1558824,48.9052941 C31.2989638,48.319208 31.0270385,47.7106133 30.495,47.4261765 C29.8970588,47.1429412 29.5823529,47.4261765 28.9529412,47.6779412 C28.3235294,47.9297059 27.8829412,48.7794118 27.2220588,49.1570588 Z" id="Shape" fill="#FCA851" fill-rule="nonzero"></path>
                                <path d="M26.6241176,48.3702941 C26.4493714,48.3203647 26.2618981,48.3828558 26.1520588,48.5276471 C26.1014637,48.6152804 26.1014637,48.723249 26.1520588,48.8108824 C26.2142604,48.8245282 26.2786808,48.8245282 26.3408824,48.8108824 C26.741093,49.0075956 27.1863716,49.0944793 27.6311765,49.0626471 C28.1648123,48.9958761 28.6564624,48.7388772 29.0158824,48.3388235 C29.4581745,48.0063234 29.9206278,47.7015247 30.4005882,47.4261765 C30.0229412,47.0485294 28.9214706,47.4261765 28.4179412,47.7408824 C27.9129948,48.155769 27.2775936,48.3787168 26.6241176,48.3702941 L26.6241176,48.3702941 Z" id="Shape" fill="#FCA851" fill-rule="nonzero"></path>
                                <polygon id="Shape" fill="#61CB98" fill-rule="nonzero" points="47.1114706 25.5226471 45.9470588 24.1694118 47.6464706 20.8964706 48.685 21.6517647"></polygon>
                                <polygon id="Shape" fill="#61CB98" fill-rule="nonzero" points="44.7511765 24.4211765 43.5867647 25.4597059 43.0832353 21.9979412 43.5552941 21.5573529"></polygon>
                                <path d="M45.475,25.6170588 C44.8973012,27.9561339 44.5806619,30.3520382 44.5308824,32.7608824 C44.8455882,37.1038235 49.6920588,60.1717647 49.6920588,60.1717647 C49.6920588,60.1717647 49.9752941,61.7138235 49.6920588,61.6194118 C49.4088235,61.525 44.1217647,33.2958824 44.0273529,32.3832353 C44.1279164,29.9432632 44.5188082,27.52396 45.1917647,25.1764706 L45.475,25.6170588 Z" id="Shape" fill="#61CB98" fill-rule="nonzero"></path>
                                <polygon id="Shape" fill="#61CB98" fill-rule="nonzero" points="33.5161765 47.1114706 31.4391176 48.4647059 29.8026471 47.1429412 30.8726471 45.3491176"></polygon>
                                <path d="M29.0788235,51.2970588 C28.2406782,52.0059531 27.2317056,52.4833165 26.1520588,52.6817647 C24.6269458,53.0428966 23.0823411,53.316092 21.5258824,53.5 C20.9754978,53.5776208 20.4293287,53.6826534 19.8894118,53.8147059 C18.4799036,54.0865859 17.0393852,54.1607303 15.6094118,54.035 C14.7031977,54.0174044 13.8076255,53.8361576 12.9658824,53.5 C12.5252941,53.2797059 13.91,51.5802941 14.5394118,50.6361765 C15.7982353,48.7164706 18.6935294,49.7864706 20.6132353,49.4717647 C21.7450314,49.1346861 22.9029649,48.8925727 24.075,48.7479412 C24.8728107,48.8677446 25.6291491,49.1810848 26.2779412,49.6605882 C26.7814706,49.9752941 30.3691176,49.8179412 29.0788235,51.2970588 Z" id="Shape" fill="#FCA851" fill-rule="nonzero"></path>
                                <path d="M103.632647,55.4511765 C103.501402,55.5994903 103.324021,55.6992672 103.129118,55.7344118 L102.625588,55.7344118 L22.2811765,55.7344118 C21.2671561,54.7566132 20.4358754,53.6056091 19.8264706,52.3355882 C19.7059474,52.01072 19.7059474,51.6533977 19.8264706,51.3285294 C19.637769,51.0417526 19.5814089,50.6877114 19.6717349,50.3565159 C19.7620609,50.0253205 19.9903614,49.748914 20.2985294,49.5976471 C21.4314706,48.9682353 22.5329412,48.3073529 23.6973529,47.7408824 C26.038389,46.454941 28.7635161,46.0528731 31.3761765,46.6079412 C34.2389509,47.4454344 37.1501398,48.107546 40.0935294,48.5905882 C41.9430994,49.0108782 43.8304669,49.2428451 45.7267647,49.2829412 C47.1429412,49.0626471 52.0208824,45.1602941 56.0176471,45.1602941 C58.2932531,45.4180686 60.462489,46.2640706 62.3117647,47.615 C63.9012395,48.3770123 65.647712,48.7543366 67.41,48.7164706 C68.7353713,48.9038463 70.0413486,49.2092765 71.3123529,49.6291176 C74.0351422,50.5753142 76.8710942,51.1573193 79.7464706,51.36 C81.1941176,51.36 82.6417647,51.1082353 84.0894118,51.0138235 C85.5136089,50.9208463 86.9411338,51.1355117 88.275,51.6432353 C89.5338235,52.1467647 94.5691176,53.5944118 94.5691176,53.5944118 C94.5691176,53.5944118 95.1985294,52.6188235 95.4817647,52.3670588 C95.8647735,52.0075406 96.4341157,51.9316283 96.8979412,52.1782353 C98.6559752,53.2374858 100.64085,53.863153 102.688529,54.0035294 C103.286471,54.0035294 103.758529,53.8147059 103.821471,54.4126471 C103.913717,54.7697692 103.844697,55.1493809 103.632647,55.4511765 Z" id="Shape" fill="#FCA851" fill-rule="nonzero"></path>
                                <path d="M104.513824,59.7941176 L2.04558824,59.7941176 C1.52810406,59.7941176 1.03181469,59.5885479 0.665898122,59.2226313 C0.299981553,58.8567147 0.0944117647,58.3604254 0.0944117647,57.8429412 L0.0944117647,57.8429412 C0.0685598381,57.3093014 0.262659381,56.7884037 0.63141532,56.4018047 C1.00017126,56.0152058 1.51132303,55.7967271 2.04558824,55.7973529 L104.513824,55.7973529 C105.591429,55.7973529 106.465,56.6709244 106.465,57.7485294 L106.465,57.7485294 C106.490852,58.2821692 106.296752,58.8030669 105.927996,59.1896658 C105.559241,59.5762648 105.048089,59.7947435 104.513824,59.7941176 L104.513824,59.7941176 Z" id="Shape" fill="#EC6645" fill-rule="nonzero"></path>
                                <path d="M73.6411765,55.8917647 L73.3264706,55.8917647 L73.6411765,55.8917647 Z" id="Shape" fill="#A2075A" fill-rule="nonzero"></path>
                                <path d="M49.2514706,54.6014706 C49.1407105,54.1465466 49.1407105,53.6716887 49.2514706,53.2167647 C49.2514706,52.9020588 50.9508824,52.7447059 50.9823529,52.3670588 C51.0138235,51.9894118 39.7158824,52.0208824 38.6458824,51.9894118 C36.4650839,51.8667105 34.297372,51.57207 32.1629412,51.1082353 C29.5294941,50.3414692 26.7413608,50.2763766 24.075,50.9194118 C22.7217647,51.4544118 23.2882353,54.0664706 24.6729412,53.5 C25.5328182,53.0910614 26.461252,52.8456134 27.4108824,52.7761765 C28.478098,52.8636202 29.5330229,53.064056 30.5579412,53.3741176 C32.7203436,53.7625048 34.9080181,53.9938934 37.1038235,54.0664706 C39.2752941,54.2238235 41.4782353,54.3182353 43.6497059,54.3811765 C44.7511765,54.3811765 45.7897059,54.7273529 46.7967647,54.7902941 C47.5934314,54.7469826 48.3918627,54.7469826 49.1885294,54.7902941 L49.2514706,54.6014706 Z" id="Shape" fill="#F09139" fill-rule="nonzero"></path>
                                <path d="M65.7420588,55.105 C67.0952941,55.2623529 68.4485294,55.5770588 69.8017647,55.8288235 L30.7782353,55.8288235 L31.4076471,55.2623529 C32.0401121,54.804097 32.798192,54.5514037 33.5791176,54.5385294 L38.4570588,54.3497059 C41.6041176,54.3497059 44.7511765,54.3497059 47.7408824,54.3497059 C50.7305882,54.3497059 53.7517647,54.3497059 56.7729412,54.5070588 C59.7719691,54.5253314 62.7671454,54.7250098 65.7420588,55.105 L65.7420588,55.105 Z" id="Shape" fill="#F09139" fill-rule="nonzero"></path>
                                <path d="M103.632647,55.4511765 C103.501402,55.5994903 103.324021,55.6992672 103.129118,55.7344118 L102.625588,55.7344118 L69.8647059,55.7344118 L70.2423529,55.4511765 C70.9844099,55.0843836 71.8071623,54.9111726 72.6341176,54.9476471 C73.8614706,54.9476471 75.1202941,54.9476471 76.3791176,54.9476471 C79.5261765,54.9476471 82.6732353,54.9476471 85.8202941,55.105 C86.1979412,55.105 93.09,54.8847059 95.9852941,55.105 C97.4937959,55.217281 99.008557,55.217281 100.517059,55.105 C101.5684,54.9944582 102.631213,55.1125485 103.632647,55.4511765 Z" id="Shape" fill="#F09139" fill-rule="nonzero"></path>
                                <path d="M74.2391176,59.6367647 C74.2391176,58.85 73.6726471,56.0805882 73.6411765,55.9547059 L73.6411765,55.9547059 L73.3264706,55.9547059 C72.7640399,56.0503815 72.1894896,56.0503815 71.6270588,55.9547059 C71.2494118,55.9547059 70.9976471,55.6714706 70.9661765,55.3252941 C70.9347059,54.9791176 70.9661765,54.8532353 70.9661765,54.3811765 C70.8577515,52.65437 70.3048738,50.9848962 69.3611765,49.5347059 L69.1723529,49.3144118 C67.6302941,47.4891176 65.1126471,47.8352941 62.8782353,47.3002941 C61.6449359,46.8286199 60.4461296,46.2712801 59.2905882,45.6323529 C57.9324012,45.0099484 56.4362202,44.749743 54.9476471,44.8770588 C53.483747,45.2108138 52.0817615,45.7737322 50.7935294,46.545 C48.3702941,47.4891176 48.9682353,52.0208824 49.5032353,55.3252941 C49.5166195,55.4547344 49.5718653,55.5762751 49.6605882,55.6714706 C49.8363253,55.8234318 50.0579413,55.9120782 50.29,55.9232353 L50.7305882,55.9232353 C51.5173529,55.9232353 52.3670588,55.7029412 52.3985294,55.9232353 C52.6229737,57.507379 52.7177001,59.1072038 52.6817647,60.7067647 C52.5627112,62.635125 52.5627112,64.5689927 52.6817647,66.4973529 C52.6982954,67.1334667 53.2100627,67.645234 53.8461765,67.6617647 C56.8690259,67.9213203 59.9121395,67.8156566 62.9097059,67.3470588 C65.5958691,66.8466617 68.3332593,66.6775565 71.0605882,66.8435294 C71.9824802,67.0899233 72.9663764,66.9047193 73.7355882,66.34 C74.1814729,65.8620174 74.4674557,65.2570537 74.5538235,64.6091176 C74.7003816,62.9452815 74.5942781,61.2688465 74.2391176,59.6367647 L74.2391176,59.6367647 Z" id="Shape" fill="#A2075A" fill-rule="nonzero"></path>
                                <path d="M70.9661765,55.3252941 C70.9661765,54.8532353 70.9661765,54.8532353 70.9661765,54.3811765 C70.8577515,52.65437 70.3048738,50.9848962 69.3611765,49.5347059 L69.1723529,49.3144118 C70.7458824,53.0279412 71.3752941,54.1923529 68.4485294,54.1923529 C66.0882353,54.1923529 54.2867647,55.2308824 49.7864706,55.64 C49.9622076,55.7919612 50.1838237,55.8806076 50.4158824,55.8917647 L50.8564706,55.8917647 L52.5244118,55.8917647 L71.7844118,55.8917647 C71.2808824,55.8602941 70.9976471,55.6714706 70.9661765,55.3252941 Z" id="Shape" fill="#88004E" fill-rule="nonzero"></path>
                                <path d="M21.5258824,53.5 C20.9754978,53.5776208 20.4293287,53.6826534 19.8894118,53.8147059 C18.4799036,54.0865859 17.0393852,54.1607303 15.6094118,54.035 L15.6094118,54.035 C15.0401889,53.8242401 14.7283507,53.2115687 14.8929283,52.6273183 C15.0575059,52.0430678 15.6432857,51.6832465 16.2388235,51.8005882 L16.4276471,51.8005882 C16.3861233,51.624672 16.3861233,51.4415044 16.4276471,51.2655882 C16.5687322,50.6529777 17.1600406,50.2541883 17.7808824,50.3529412 C18.4417647,50.3529412 18.8508824,50.9823529 19.3544118,51.3285294 C19.8849475,51.6396809 20.4311616,51.9232921 20.9908824,52.1782353 C21.4588859,52.4372784 21.6819426,52.9883597 21.5258824,53.5 L21.5258824,53.5 Z" id="Shape" fill="#F09139" fill-rule="nonzero"></path>
                                <path d="M16.05,53.1852941 C15.9859203,51.5121487 16.0807571,49.8366976 16.3332353,48.1814706 L16.3332353,48.1814706 L16.3332353,47.9297059 C15.9241176,47.5205882 15.5464706,47.0485294 15.1688235,46.6394118 C14.4435253,45.7192578 13.5455507,44.9495653 12.5252941,44.3735294 C11.2531215,43.5061674 9.68530808,43.187533 8.17548766,43.4894971 C6.66566725,43.7914612 5.3410065,44.6885904 4.50029412,45.9785294 L4.50029412,45.9785294 C3.62967668,46.9288763 3.11773333,48.1530887 3.05264706,49.4402941 C2.97854091,50.9049229 3.43684623,52.346908 4.34294118,53.5 C6.51651895,56.1549034 10.3385943,56.7512556 13.2176471,54.8847059 C14.1932353,54.4126471 15.1058824,53.8461765 16.05,53.3741176 L16.05,53.1852941 Z" id="Shape" fill="#502410" fill-rule="nonzero"></path>
                                <path d="M7.01794118,53.8776471 C6.83608308,53.6112037 6.70781646,53.3119149 6.64029412,52.9964706 C6.48294118,52.3041176 6.955,51.36 6.955,50.6991176 C6.955,49.5347059 6.76617647,47.8352941 7.86764706,47.08 C8.96911765,46.3247059 10.1335294,46.7967647 11.3294118,46.8597059 L12.0217647,46.8597059 C11.8393666,46.5811507 11.7717103,46.2428692 11.8329412,45.9155882 C11.8853808,45.633071 12.1143613,45.4168116 12.3994118,45.3805882 C13.3135326,45.4393816 14.1279791,45.9783536 14.5394118,46.7967647 L14.6338235,46.7967647 C15.0403229,46.8179788 15.4423298,46.8920327 15.8297059,47.0170588 C17.1497554,47.5293487 18.2585025,48.4717838 18.9767647,49.6920588 C19.596654,50.6495018 19.596654,51.8816747 18.9767647,52.8391176 C18.3890802,53.860757 17.3478348,54.5393214 16.1758824,54.6644118 C14.9086998,55.0255752 13.5845008,55.1430444 12.2735294,55.0105882 C10.5741176,54.8217647 8.05647059,55.3567647 7.01794118,53.8776471 Z" id="Shape" fill="#FCA851" fill-rule="nonzero"></path>
                                <path d="M16.9311765,54.8217647 L4.72058824,54.8217647 C4.57869741,54.8217647 4.44261807,54.8781306 4.34228611,54.9784626 C4.24195414,55.0787945 4.18558824,55.2148739 4.18558824,55.3567647 L4.18558824,55.3567647 C4.18558824,55.4986555 4.24195414,55.6347349 4.34228611,55.7350668 C4.44261807,55.8353988 4.57869741,55.8917647 4.72058824,55.8917647 L16.9311765,55.8917647 C17.0730673,55.8917647 17.2091466,55.8353988 17.3094786,55.7350668 C17.4098106,55.6347349 17.4661765,55.4986555 17.4661765,55.3567647 L17.4661765,55.3567647 C17.4661765,55.2148739 17.4098106,55.0787945 17.3094786,54.9784626 C17.2091466,54.8781306 17.0730673,54.8217647 16.9311765,54.8217647 Z" id="Shape" fill="#C5D8EB" fill-rule="nonzero"></path>
                                <path d="M55.7658824,55.6714706 C55.7658824,55.6714706 60.8011765,55.8602941 61.2102941,55.6714706 C61.5482662,55.5967257 61.868763,55.4578438 62.1544118,55.2623529 L63.6335294,54.5385294 L63.6335294,54.5385294 C63.7788117,54.4461107 63.8667963,54.2858629 63.8667963,54.1136765 C63.8667963,53.9414901 63.7788117,53.7812422 63.6335294,53.6888235 C63.0178623,53.3398589 62.3267219,53.1454756 61.6194118,53.1223529 C60.455,53.1223529 59.1332353,53.1223529 59.1332353,53.1223529 L60.8641176,53.1223529 C59.1942644,52.1401512 57.0714367,52.4119767 55.7029412,53.7832353 C55.2938235,55.3567647 55.7658824,55.6714706 55.7658824,55.6714706 Z" id="Shape" fill="#FCA851" fill-rule="nonzero"></path>
                                <path d="M56.8044118,54.6644118 C56.5526471,54.0979412 55.7344118,54.035 55.0735294,53.9405882 L51.2341176,53.5 C48.8423529,53.2167647 46.4191176,52.965 43.9958824,52.9335294 C41.7950941,53.0712658 39.587847,53.0712658 37.3870588,52.9335294 C33.1070588,52.2726471 28.9844118,51.6747059 24.7988235,51.3914706 C23.2882353,51.3914706 21.2741176,51.1711765 20.3929412,52.6502941 C19.9190054,53.7974253 20.3288324,55.1194479 21.3685294,55.7973529 C21.7834041,55.9949034 22.2318455,56.1123524 22.6902941,56.1435294 C27.071129,56.8381361 31.5202512,56.9966559 35.9394118,56.6155882 C37.1177657,56.4567803 38.3070428,56.3936329 39.4955882,56.4267647 C43.1695844,56.5194864 46.8459188,56.4249521 50.5102941,56.1435294 L55.2938235,55.8288235 C55.9232353,55.6714706 57.245,55.5770588 56.8044118,54.6644118 Z" id="Shape" fill="#FCA851" fill-rule="nonzero"></path>
                                <rect id="Rectangle-path" fill="#A2B3C4" fill-rule="nonzero" x="6.42" y="59.7311765" width="2.32882353" height="41.2579412"></rect>
                                <rect id="Rectangle-path" fill="#A2B3C4" fill-rule="nonzero" x="97.7476471" y="59.7311765" width="2.32882353" height="41.2579412"></rect>
                                <rect id="Rectangle-path" fill="#A2B3C4" fill-rule="nonzero" x="7.86764706" y="85.065" width="90.1632353" height="1"></rect>
                                <rect id="Rectangle-path" fill="#A2B3C4" fill-rule="nonzero" x="7.86764706" y="83.0194118" width="90.1632353" height="2.20294118"></rect>
                                <path d="M98.0623529,75.8755882 L98.0623529,75.1202941" id="Shape" fill="#A2B3C4" fill-rule="nonzero"></path>
                                <path d="M7.86764706,75.1202941 L7.86764706,75.8755882" id="Shape" fill="#A2B3C4" fill-rule="nonzero"></path>
                                <path d="M51.2655882,26.7814706 C50.1922542,28.7086948 49.6086903,30.8700426 49.5661765,33.0755882 C49.5197558,34.1537269 49.2964872,35.2169106 48.9052941,36.2226471 C47.96306,37.7846631 46.9114109,39.2780049 45.7582353,40.6914706 C45.1139005,41.7411957 44.6162447,42.8741567 44.2791176,44.0588235 C44.0902941,44.7197059 43.5238235,46.01 44.5938235,45.9155882 C45.9488769,45.528025 47.1346436,44.6968801 47.9611765,43.5552941 C48.285347,42.9970528 48.6880947,42.4883189 49.1570588,42.0447059 C49.6762051,41.3717222 50.1194777,40.6434888 50.4788235,39.8732353 C51.14233,38.4452617 51.5472318,36.9108971 51.6747059,35.3414706 C51.5910253,32.7512868 52.1420293,30.1799349 53.2797059,27.8514706 C54.1294118,26.7185294 52.0838235,25.5541176 51.2655882,26.7814706 Z" id="Shape" fill="#61CB98" fill-rule="nonzero"></path>
                                <path d="M54.1923529,25.3967647 L52.7132353,24.4526471 L52.3985294,24.8617647 C52.1878494,25.1081266 51.8990277,25.2747545 51.5802941,25.3338235 C51.36,26.1520588 51.1711765,26.9702941 51.0767647,27.4423529 C50.6025357,29.4058065 50.297206,31.4062423 50.1641176,33.4217647 C50.1641176,34.9008824 50.3844118,36.2855882 49.3773529,37.5129412 C48.2319524,38.8329949 47.1803626,40.2316094 46.2302941,41.6985294 C45.1576838,43.2291779 44.3295594,44.9172777 43.7755882,46.7023529 C43.7755882,47.1429412 43.5867647,47.1429412 43.7755882,47.5205882 C44.405,48.6535294 46.01,46.3247059 46.5135294,45.7897059 C47.0170588,45.2547059 48.3073529,43.8385294 49.1885294,42.8314706 L49.8179412,42.1076471 C50.936296,40.9730747 51.814033,39.624357 52.3985294,38.1423529 C52.8076471,36.8520588 53.0908824,35.4988235 53.4685294,34.2085294 C54.1286772,32.3092071 54.5308958,30.3298679 54.6644118,28.3235294 C54.7127304,28.1698858 54.7127304,28.0051142 54.6644118,27.8514706 C54.6026497,27.0177155 54.4442348,26.1939583 54.1923529,25.3967647 L54.1923529,25.3967647 Z" id="Shape" fill="#FCA851" fill-rule="nonzero"></path>
                                <path d="M50.5417647,26.9702941 L49.7235294,35.6247059 C49.7067443,36.0040446 49.6214483,36.3772146 49.4717647,36.7261765 C49.2881311,37.0540675 49.0545472,37.3513561 48.7794118,37.6073529 C47.1274813,39.7267567 45.7428445,42.0415311 44.6567647,44.4994118 C44.6567647,45.475 46.1358824,45.475 46.9226471,46.0414706 C48.3380033,44.8545496 49.6058826,43.502145 50.6991176,42.0132353 C51.5349739,41.0529818 52.2533761,39.9965079 52.8391176,38.8661765 C54.9476471,34.3344118 56.6785294,29.2047059 54.5385294,24.4841176 C54.187459,23.9816533 53.7506996,23.544894 53.2482353,23.1938235 C51.4544118,22.0294118 50.6676471,25.8688235 50.5417647,26.9702941 Z" id="Shape" fill="#30B89E" fill-rule="nonzero"></path>
                                <path d="M41.0061765,48.0555882 C39.9385526,48.6957109 39.0080565,49.5406442 38.2682353,50.5417647 C38.0794118,50.7620588 37.985,50.9823529 38.2682353,51.2026471 C38.9936769,50.8605758 39.6294132,50.3541418 40.125,49.7235294 C39.4814963,50.2434159 38.9467927,50.8850602 38.5514706,51.6117647 C38.7402941,51.8005882 39.0864706,51.6117647 39.2438235,51.3914706 C39.4011765,51.1711765 40.3138235,50.4473529 40.7544118,49.9123529 C40.1576852,50.4800271 39.686054,51.1660361 39.3697059,51.9264706 C40.0620588,51.4229412 40.9432353,50.9823529 41.3208824,50.2585294 C40.9432353,50.7935294 40.2508824,51.1711765 40.0305882,51.7691176 C40.5977975,51.7249485 41.1267967,51.4660765 41.5097059,51.0452941 C42.1391176,50.5417647 42.8314706,50.1641176 43.4923529,49.6920588 C44.1774852,49.2401054 44.6967248,48.5772463 44.9714706,47.8038235 C45.114552,47.2177374 44.8426267,46.6091427 44.3105882,46.3247059 C43.7126471,46.0414706 43.3979412,46.3247059 42.7685294,46.5764706 C42.1391176,46.8282353 41.6041176,47.7094118 41.0061765,48.0555882 Z" id="Shape" fill="#F09139" fill-rule="nonzero"></path>
                                <path d="M40.3767647,47.2058824 C40.2326867,47.1144746 40.0487839,47.1144746 39.9047059,47.2058824 C39.8541108,47.2935157 39.8541108,47.4014843 39.9047059,47.4891176 C39.9669074,47.5027635 40.0313279,47.5027635 40.0935294,47.4891176 C40.49374,47.6858309 40.9390186,47.7727146 41.3838235,47.7408824 C41.9174594,47.6741114 42.4091095,47.4171124 42.7685294,47.0170588 C43.2108216,46.6845587 43.6732748,46.37976 44.1532353,46.1044118 C43.7755882,45.7267647 42.6741176,46.1044118 42.1705882,46.4191176 C41.6884534,46.8911352 41.050583,47.1709029 40.3767647,47.2058824 L40.3767647,47.2058824 Z" id="Shape" fill="#F09139" fill-rule="nonzero"></path>
                                <polygon id="Shape" fill="#61CB98" fill-rule="nonzero" points="47.2373529 46.01 45.1917647 47.3632353 43.5552941 46.0729412 44.1532353 43.9329412"></polygon>
                                <rect id="Rectangle-path" fill="#5F6575" fill-rule="nonzero" x="6.42" y="97.6217647" width="2.32882353" height="3.36735294"></rect>
                                <rect id="Rectangle-path" fill="#5F6575" fill-rule="nonzero" x="97.7476471" y="97.6217647" width="2.32882353" height="3.36735294"></rect>
                                <path d="M5.57029412,57.4023529 C6.24972728,55.593242 7.32496285,53.9588839 8.71735294,52.6188235 C8.94005913,52.3864959 9.14026637,52.1336025 9.31529412,51.8635294 L9.63,51.2970588 L9.63,51.0767647 C9.63839741,50.9090266 9.63839741,50.7409734 9.63,50.5732353 C9.63,50.5732353 9.63,50.1326471 9.63,50.2270588 C9.64808041,49.9021141 9.64808041,49.5764154 9.63,49.2514706 C9.63,49.0941176 9.63,48.9052941 9.63,48.7479412 L9.63,48.5591176 C9.63,48.1814706 9.47264706,47.8038235 9.34676471,47.4261765 L9.34676471,47.1114706 L9.12647059,46.6708824 L8.87470588,46.2932353 L8.87470588,46.2932353 L8.33970588,46.01 C7.64735294,45.5064706 6.04235294,45.6952941 6.04235294,46.545 C6.04235294,47.3947059 6.04235294,48.5591176 6.04235294,49.6920588 C5.91161058,50.688637 5.67962736,51.6692934 5.35,52.6188235 C4.61408117,54.4679577 4.43895478,56.4928566 4.84647059,58.4408824 C4.90110428,58.6266981 5.02503276,58.7844253 5.19264706,58.8814706 C5.27439067,58.3782023 5.40077178,57.8832096 5.57029412,57.4023529 L5.57029412,57.4023529 Z" id="Shape" fill="#502410" fill-rule="nonzero"></path>
                            </g>
                        </g>
                    </g>
                </g>
            </g>
        </g>
    </g>
</svg>