<?xml version="1.0" encoding="UTF-8"?>
<svg width="50px" height="50px" viewBox="0 0 50 50" version="1.1" xmlns="http://www.w3.org/2000/svg" xmlns:xlink="http://www.w3.org/1999/xlink">
    <!-- Generator: Sketch 46.2 (44496) - http://www.bohemiancoding.com/sketch -->
    <title>Forma_1-7</title>
    <desc>Created with Sketch.</desc>
    <defs></defs>
    <g id="Welcome" stroke="none" stroke-width="1" fill="none" fill-rule="evenodd">
        <g id="imassage-store" transform="translate(-535.000000, -1845.000000)" fill="#E33A36">
            <g id="help" transform="translate(0.000000, 1581.000000)">
                <g id="Group" transform="translate(407.000000, 257.000000)">
                    <g id="_1" transform="translate(51.000000, 0.000000)">
                        <g id="Group" transform="translate(0.000000, 7.000000)">
                            <path d="M123.393004,0 L80.6070035,0 C78.6116657,0.00441378082 76.9972389,1.62465921 77.0000035,3.62 L77.0000035,4.2 C76.998855,5.82052017 78.0774208,7.24334394 79.6380035,7.68 L79.6380035,38.33 C79.6369389,38.6641513 79.7690718,38.9849526 80.0051659,39.221422 C80.24126,39.4578915 80.561851,39.5905338 80.8960035,39.59 L100.742004,39.59 L100.742004,42.19 C98.8836098,42.8072488 97.7475605,44.6816185 98.0601949,46.6147205 C98.3728294,48.5478224 100.041784,49.9685476 102.000004,49.9685476 C103.958223,49.9685476 105.627178,48.5478224 105.939812,46.6147205 C106.252447,44.6816185 105.116397,42.8072488 103.258004,42.19 L103.258004,39.59 L123.100004,39.59 C123.434156,39.5905338 123.754747,39.4578915 123.990841,39.221422 C124.226935,38.9849526 124.359068,38.6641513 124.358004,38.33 L124.358004,7.68 C125.920173,7.24483642 127.000651,5.82164708 127.000004,4.2 L127.000004,3.62 C127.002768,1.62465921 125.388341,0.00441378082 123.393004,4.54747351e-13 L123.393004,0 Z M102.000004,47.47 C101.400859,47.472429 100.859359,47.1133827 100.628391,46.5605413 C100.397424,46.0076999 100.522561,45.3701439 100.945362,44.9456219 C101.368163,44.5210999 102.005205,44.3933738 102.55898,44.6220936 C103.112756,44.8508135 103.473999,45.3908509 103.474004,45.99 C103.475066,46.3818058 103.320303,46.7579572 103.043816,47.0355689 C102.76733,47.3131806 102.39181,47.4694705 102.000004,47.47 L102.000004,47.47 Z M121.845004,37.07 L82.1550035,37.07 L82.1550035,7.82 L121.845004,7.82 L121.845004,37.07 Z M124.483004,4.2 C124.483028,4.80362931 123.996608,5.29451246 123.393004,5.3 L80.6070035,5.3 C80.0033992,5.29451246 79.5169786,4.80362931 79.5170035,4.2 L79.5170035,3.62 C79.5181043,3.01846614 80.0054697,2.53110071 80.6070035,2.53 L123.393004,2.53 C123.994537,2.53110071 124.481903,3.01846614 124.483004,3.62 L124.483004,4.2 Z M85.5110035,12.09 C85.8469572,12.087944 86.1695737,12.2213161 86.4060035,12.46 L91.2570035,17.32 L95.9380035,14.97 C96.5092427,14.6880572 97.2009431,14.87177 97.5570035,15.4 L102.351004,22.6 L109.543004,17.8 C109.853625,17.5989099 110.235558,17.540655 110.592004,17.64 C110.947403,17.7407199 111.240185,17.9932445 111.392004,18.33 L116.340004,29.21 L117.330004,27 C117.533615,26.5438201 117.986446,26.250028 118.486004,26.25 C118.663558,26.2524252 118.838896,26.2898035 119.002004,26.36 C119.640248,26.6494839 119.9252,27.3998284 119.640004,28.04 L117.359004,33.14 C117.220372,33.4426557 116.969284,33.6793963 116.659004,33.8 C116.345501,33.9184893 115.99835,33.9113241 115.690004,33.78 L110.599004,31.49 C109.978674,31.1939685 109.707876,30.4570458 109.988922,29.8297847 C110.269967,29.2025236 111.000173,28.9141025 111.634004,29.18 L114.034004,30.26 L109.705004,20.74 L102.698004,25.42 C102.416788,25.6012649 102.077304,25.6691618 101.748004,25.61 C101.421088,25.5412894 101.133988,25.3474968 100.948004,25.07 L96.0720035,17.74 L91.5720035,19.99 C91.0849638,20.2383798 90.4929895,20.1411355 90.1110035,19.75 L84.6110035,14.25 C84.3734579,14.0127251 84.2399834,13.6907488 84.2399834,13.355 C84.2399834,13.0192512 84.3734579,12.6972749 84.6110035,12.46 C84.8483868,12.2196795 85.1732318,12.0861321 85.5110035,12.09 L85.5110035,12.09 Z" id="Forma_1-7"></path>
                        </g>
                    </g>
                </g>
            </g>
        </g>
    </g>
</svg>