<?xml version="1.0" encoding="UTF-8"?>
<svg width="44px" height="47px" viewBox="0 0 44 47" version="1.1" xmlns="http://www.w3.org/2000/svg" xmlns:xlink="http://www.w3.org/1999/xlink">
    <!-- Generator: Sketch 46.2 (44496) - http://www.bohemiancoding.com/sketch -->
    <title>ROI</title>
    <desc>Created with Sketch.</desc>
    <defs></defs>
    <g id="Welcome" stroke="none" stroke-width="1" fill="none" fill-rule="evenodd">
        <g id="imassage-store" transform="translate(-375.000000, -2996.000000)" fill="#E33A36">
            <g id="benifits" transform="translate(375.000000, 2402.000000)">
                <g id="list" transform="translate(0.000000, 238.000000)">
                    <g id="b1-copy-6" transform="translate(0.000000, 352.000000)">
                        <g id="ROI" transform="translate(0.000000, 4.000000)">
                            <path d="M30.8758621,5.39741935 L2.30317241,5.39741935 C1.88686087,5.37125935 1.47931935,5.52480745 1.18392624,5.81911413 C0.888533126,6.1134208 0.733670262,6.5202086 0.75862069,6.93629032 L0.75862069,45.4687097 C0.746135791,45.677089 0.823428583,45.8808561 0.971002144,46.0286112 C1.11857571,46.1763663 1.32234021,46.2540022 1.53089655,46.2419355 L31.642069,46.2419355 C31.8507479,46.2539579 32.0546334,46.1763617 32.2024368,46.0286667 C32.3502401,45.8809717 32.4278933,45.6772357 32.4158621,45.4687097 L32.4158621,6.93629032 C32.4414308,6.52084918 32.28741,6.1144098 31.9928778,5.82009352 C31.6983456,5.52577723 31.291608,5.37186941 30.8758621,5.39741935 Z M2.30317241,6.93629032 L30.8758621,6.93629032 L30.8758621,14.6458065 L2.30317241,14.6458065 L2.30317241,6.93629032 L2.30317241,6.93629032 Z M30.8758621,44.7030645 L2.30317241,44.7030645 L2.30317241,16.1846774 L30.8758621,16.1846774 L30.8758621,44.7030645 Z M6.1637931,10.0216129 L15.4295862,10.0216129 L15.4295862,11.5604839 L6.1637931,11.5604839 L6.1637931,10.0216129 Z M17.7464138,10.0216129 L21.6055172,10.0216129 L21.6055172,11.5604839 L17.7464138,11.5604839 L17.7464138,10.0216129 Z M5.39151724,26.2290323 L10.7966897,26.2290323 C11.005246,26.241099 11.2090105,26.1634631 11.3565841,26.015708 C11.5041576,25.8679529 11.5814504,25.6641858 11.5689655,25.4558065 L11.5689655,21.6048387 C11.5814504,21.3964594 11.5041576,21.1926923 11.3565841,21.0449372 C11.2090105,20.8971821 11.005246,20.8195462 10.7966897,20.8316129 L5.39151724,20.8316129 C5.1829609,20.8195462 4.9791964,20.8971821 4.83162283,21.0449372 C4.68404927,21.1926923 4.60675648,21.3964594 4.61924138,21.6048387 L4.61924138,25.4558065 C4.60675648,25.6641858 4.68404927,25.8679529 4.83162283,26.015708 C4.9791964,26.1634631 5.1829609,26.241099 5.39151724,26.2290323 L5.39151724,26.2290323 Z M6.1637931,22.3780645 L10.0244138,22.3780645 L10.0244138,24.6901613 L6.1637931,24.6901613 L6.1637931,22.3780645 Z M19.287931,20.8316129 L13.8827586,20.8316129 C13.6742023,20.8195462 13.4704378,20.8971821 13.3228642,21.0449372 C13.1752907,21.1926923 13.0979979,21.3964594 13.1104828,21.6048387 L13.1104828,25.4558065 C13.0979979,25.6641858 13.1752907,25.8679529 13.3228642,26.015708 C13.4704378,26.1634631 13.6742023,26.241099 13.8827586,26.2290323 L19.287931,26.2290323 C19.4964263,26.2411216 19.7001307,26.1634659 19.8475895,26.0156806 C19.9950483,25.8678953 20.0721606,25.6641124 20.0594483,25.4558065 L20.0594483,21.6048387 C20.0720779,21.3970897 19.995366,21.1938318 19.8485945,21.0461544 C19.701823,20.898477 19.498949,20.8204235 19.2909655,20.8316129 L19.287931,20.8316129 Z M18.5156552,24.6901613 L14.6542759,24.6901613 L14.6542759,22.3780645 L18.5156552,22.3780645 L18.5156552,24.6901613 Z M21.6024828,25.4558065 C21.5904516,25.6643324 21.6681047,25.8680684 21.8159081,26.0157634 C21.9637114,26.1634584 22.1675969,26.2410546 22.3762759,26.2290323 L27.7852414,26.2290323 C27.9931781,26.2407869 28.1961693,26.1628328 28.3427106,26.0149491 C28.4892519,25.8670654 28.5652595,25.6634649 28.5514483,25.4558065 L28.5514483,21.6048387 C28.5652595,21.3971803 28.4892519,21.1935798 28.3427106,21.0456961 C28.1961693,20.8978123 27.9931781,20.8198583 27.7852414,20.8316129 L22.3762759,20.8316129 C22.1675969,20.8195905 21.9637114,20.8971867 21.8159081,21.0448817 C21.6681047,21.1925767 21.5904516,21.3963127 21.6024828,21.6048387 L21.6024828,25.4558065 L21.6024828,25.4558065 Z M23.150069,22.3780645 L27.0114483,22.3780645 L27.0114483,24.6901613 L23.150069,24.6901613 L23.150069,22.3780645 Z M5.38848276,33.9385484 L10.7936552,33.9385484 C11.0022115,33.9506151 11.205976,33.8729792 11.3535496,33.7252241 C11.5011231,33.577469 11.5784159,33.3737019 11.565931,33.1653226 L11.565931,29.3143548 C11.5784159,29.1059755 11.5011231,28.9022084 11.3535496,28.7544533 C11.205976,28.6066982 11.0022115,28.5290623 10.7936552,28.541129 L5.38848276,28.541129 C5.17992642,28.5290623 4.97616191,28.6066982 4.82858835,28.7544533 C4.68101479,28.9022084 4.603722,29.1059755 4.6162069,29.3143548 L4.6162069,33.1653226 C4.60363597,33.3742612 4.68132908,33.5785563 4.82959134,33.7264199 C4.9778536,33.8742835 5.18245038,33.9515194 5.39151724,33.9385484 L5.38848276,33.9385484 Z M6.16075862,30.08 L10.0213793,30.08 L10.0213793,32.3920968 L6.16075862,32.3920968 L6.16075862,30.08 Z M19.2848966,28.541129 L13.8827586,28.541129 C13.6742023,28.5290623 13.4704378,28.6066982 13.3228642,28.7544533 C13.1752907,28.9022084 13.0979979,29.1059755 13.1104828,29.3143548 L13.1104828,33.1653226 C13.0979979,33.3737019 13.1752907,33.577469 13.3228642,33.7252241 C13.4704378,33.8729792 13.6742023,33.9506151 13.8827586,33.9385484 L19.287931,33.9385484 C19.4964263,33.9506378 19.7001307,33.8729821 19.8475895,33.7251967 C19.9950483,33.5774114 20.0721606,33.3736285 20.0594483,33.1653226 L20.0594483,29.3143548 C20.0720779,29.1066058 19.995366,28.9033479 19.8485945,28.7556705 C19.701823,28.6079931 19.498949,28.5299396 19.2909655,28.541129 L19.2848966,28.541129 Z M18.5126207,32.3920968 L14.6512414,32.3920968 L14.6512414,30.08 L18.5126207,30.08 L18.5126207,32.3920968 Z M27.7822069,28.541129 L22.3732414,28.541129 C22.1645624,28.5291067 21.9606769,28.6067029 21.8128736,28.7543979 C21.6650702,28.9020929 21.5874171,29.1058288 21.5994483,29.3143548 L21.5994483,33.1653226 C21.5874171,33.3738486 21.6650702,33.5775846 21.8128736,33.7252796 C21.9606769,33.8729746 22.1645624,33.9505708 22.3732414,33.9385484 L27.7822069,33.9385484 C27.9901436,33.950303 28.1931348,33.8723489 28.3396761,33.7244652 C28.4862175,33.5765815 28.5622251,33.372981 28.5484138,33.1653226 L28.5484138,29.3143548 C28.56206,29.107806 28.4868517,28.9052538 28.341684,28.7575866 C28.1965162,28.6099194 27.9951865,28.5311722 27.7882759,28.541129 L27.7822069,28.541129 Z M27.0084138,32.3920968 L23.1470345,32.3920968 L23.1470345,30.08 L27.0084138,30.08 L27.0084138,32.3920968 Z M5.38772414,41.6404839 L10.7928966,41.6404839 C11.0005842,41.6543319 11.2042146,41.5783414 11.3519779,41.4318468 C11.4997413,41.2853521 11.5773916,41.0824768 11.5651724,40.8748387 L11.5651724,37.0162903 C11.5773916,36.8086522 11.4997413,36.6057769 11.3519779,36.4592823 C11.2042146,36.3127876 11.0005842,36.2367971 10.7928966,36.2506452 L5.38772414,36.2506452 C5.18003654,36.2367971 4.97640611,36.3127876 4.82864277,36.4592823 C4.68087943,36.6057769 4.60322904,36.8086522 4.61544828,37.0162903 L4.61544828,40.8748387 C4.60311115,41.0831827 4.68126117,41.2867272 4.8298899,41.4333596 C4.97851863,41.579992 5.18319525,41.6554753 5.39151724,41.6404839 L5.38772414,41.6404839 Z M6.16,37.7895161 L10.0206207,37.7895161 L10.0206207,40.1016129 L6.16,40.1016129 L6.16,37.7895161 Z M19.2841379,36.2506452 L13.8827586,36.2506452 C13.675071,36.2367971 13.4714406,36.3127876 13.3236773,36.4592823 C13.1759139,36.6057769 13.0982635,36.8086522 13.1104828,37.0162903 L13.1104828,40.8748387 C13.0982635,41.0824768 13.1759139,41.2853521 13.3236773,41.4318468 C13.4714406,41.5783414 13.675071,41.6543319 13.8827586,41.6404839 L19.287931,41.6404839 C19.4954915,41.6541042 19.6989132,41.5780128 19.8465037,41.4315455 C19.9940943,41.2850783 20.0716447,41.0823361 20.0594483,40.8748387 L20.0594483,37.0162903 C20.0715562,36.8093542 19.9944061,36.6071425 19.8475054,36.4607842 C19.7006047,36.3144259 19.4980166,36.2379325 19.2909655,36.2506452 L19.2841379,36.2506452 Z M18.5118621,40.1016129 L14.6504828,40.1016129 L14.6504828,37.7895161 L18.5118621,37.7895161 L18.5118621,40.1016129 Z M27.7814483,36.2506452 L22.3724828,36.2506452 C22.164672,36.236844 21.9609221,36.3127959 21.8129299,36.4592298 C21.6649377,36.6056637 21.5869264,36.808506 21.5986897,37.0162903 L21.5986897,40.8748387 C21.5869264,41.082623 21.6649377,41.2854653 21.8129299,41.4318992 C21.9609221,41.5783331 22.164672,41.654285 22.3724828,41.6404839 L27.7814483,41.6404839 C27.9885161,41.6540227 28.1913757,41.5777148 28.3381079,41.4310902 C28.48484,41.2844656 28.5612039,41.0817548 28.5476552,40.8748387 L28.5476552,37.0162903 C28.561002,36.8106331 28.4855362,36.6091161 28.3403563,36.4627384 C28.1951765,36.3163606 27.9941952,36.2391494 27.7882759,36.2506452 L27.7814483,36.2506452 Z M27.0076552,40.1016129 L23.1462759,40.1016129 L23.1462759,37.7895161 L27.0076552,37.7895161 L27.0076552,40.1016129 Z M42.4455862,18.4967742 L42.4455862,40.8445161 L40.9055862,40.8445161 L40.9055862,7.70951613 C40.9031318,7.54356429 40.8502145,7.38228495 40.7538621,7.24709677 L38.5083448,0.538225806 C38.4266271,0.221923757 38.1411192,0.00092501778 37.8142069,0.00092501778 C37.4872946,0.00092501778 37.2017867,0.221923757 37.120069,0.538225806 L34.8821379,7.24709677 C34.7968281,7.38760852 34.7449215,7.5458076 34.7304138,7.70951613 L34.7304138,45.4687097 C34.7166025,45.6763681 34.7926101,45.8799686 34.9391515,46.0278523 C35.0856928,46.175736 35.288684,46.2536901 35.4966207,46.2419355 L40.1317931,46.2419355 C40.3404721,46.2539579 40.5443575,46.1763617 40.6921609,46.0286667 C40.8399643,45.8809717 40.9176174,45.6772357 40.9055862,45.4687097 L40.9055862,42.3909677 L43.2193793,42.3909677 C43.4280583,42.4029901 43.6319438,42.3253939 43.7797471,42.1776989 C43.9275505,42.0300039 44.0052036,41.8262679 43.9931724,41.6177419 L43.9931724,18.4967742 L42.4455862,18.4967742 L42.4455862,18.4967742 Z M36.2704138,8.47516129 L39.358,8.47516129 L39.358,36.2203226 L36.2704138,36.2203226 L36.2704138,8.47516129 Z M37.818,3.23693548 L39.0545517,6.93629032 L36.5814483,6.93629032 L37.818,3.23693548 Z M39.358,44.7030645 L36.2704138,44.7030645 L36.2704138,37.7667742 L39.358,37.7667742 L39.358,44.7030645 Z" id="Shape"></path>
                        </g>
                    </g>
                </g>
            </g>
        </g>
    </g>
</svg>