<?xml version="1.0" encoding="UTF-8"?>
<svg width="47px" height="55px" viewBox="0 0 47 55" version="1.1" xmlns="http://www.w3.org/2000/svg" xmlns:xlink="http://www.w3.org/1999/xlink">
    <!-- Generator: Sketch 46.2 (44496) - http://www.bohemiancoding.com/sketch -->
    <title>Shape Copy 2</title>
    <desc>Created with Sketch.</desc>
    <defs></defs>
    <g id="Welcome" stroke="none" stroke-width="1" fill="none" fill-rule="evenodd">
        <g id="imassage-store" transform="translate(-927.000000, -1841.000000)" fill="#E33A36">
            <g id="help" transform="translate(0.000000, 1581.000000)">
                <g id="Group" transform="translate(407.000000, 257.000000)">
                    <g id="_1" transform="translate(51.000000, 0.000000)">
                        <g id="Group" transform="translate(354.000000, 3.000000)">
                            <path d="M139.921711,34.2301947 L136.846262,34.2301947 C135.712892,34.2301947 134.794114,33.3114168 134.794114,32.1780469 C134.794114,31.044677 135.712892,30.1258991 136.846262,30.1258991 L142.259495,30.1258991 C143.00997,30.1258991 143.61835,29.5175192 143.61835,28.7670445 C143.61835,28.0165698 143.00997,27.4081899 142.259495,27.4081899 L139.721118,27.4081899 L139.721118,25.5131886 C139.733926,25.0250963 139.480851,24.5684979 139.060156,24.3206794 C138.639462,24.0728608 138.117419,24.0728608 137.696724,24.3206794 C137.276029,24.5684979 137.022954,25.0250963 137.035762,25.5131886 L137.035762,27.4081899 L136.850884,27.4081899 C134.214012,27.4081899 132.076405,29.5457969 132.076405,32.1826688 C132.076405,34.8195407 134.214012,36.9571478 136.850884,36.9571478 L139.926333,36.9571478 C141.059703,36.9571478 141.97848,37.8759256 141.97848,39.0092956 C141.97848,40.1426655 141.059703,41.0614433 139.926333,41.0614433 L134.412341,41.0614433 C133.661866,41.0614433 133.053486,41.6698233 133.053486,42.4202979 C133.053486,43.1707726 133.661866,43.7791525 134.412341,43.7791525 L137.051477,43.7791525 L137.051477,45.7203734 C137.019333,46.2198185 137.267543,46.6957126 137.69551,46.9551794 C138.123477,47.2146461 138.660211,47.2146461 139.088178,46.9551794 C139.516145,46.6957126 139.764355,46.2198185 139.73221,45.7203734 L139.73221,43.7791525 L139.989191,43.7791525 C142.59155,43.7129592 144.661444,41.5746828 144.643048,38.9715473 C144.624652,36.3684118 142.524745,34.2596025 139.921711,34.2301947 L139.921711,34.2301947 Z M158.557431,31.1427291 C157.077885,27.733027 155.119392,24.5518773 152.741163,21.6954542 C150.553653,19.0124006 148.052614,16.6010499 145.291497,14.512937 L150.995913,3.79000265 C151.281725,3.25899883 151.181428,2.60292332 150.750026,2.1815625 C149.524757,0.826014264 147.794097,0.0366137547 145.967227,0 C144.455422,0.085177189 142.976967,0.478383243 141.62259,1.15548861 C140.769724,1.59374146 139.845186,1.87551739 138.892864,1.98744041 C138.674308,1.99101321 138.457306,1.95012877 138.255034,1.8672696 C136.135686,0.948322725 133.871954,0.407104259 131.566141,0.268073358 C129.061042,0.268073358 126.92385,1.29414725 124.831954,3.46646584 C124.395416,3.93025593 124.330981,4.63179541 124.675732,5.16734507 L130.827553,14.5961322 C128.11287,16.6718715 125.646908,19.0540835 123.478645,21.6954542 C121.104274,24.554647 119.146134,27.7352238 117.662378,31.1427291 C115.913815,35.1979585 115.008052,39.5663781 115.000132,43.9825185 C114.971402,49.769122 119.62786,54.4892311 125.41432,54.5390625 L150.805489,54.5390625 C156.591949,54.4892311 161.248407,49.769122 161.219677,43.9825185 C161.211757,39.5663781 160.305994,35.1979585 158.557431,31.1427291 L158.557431,31.1427291 Z M127.539495,4.60346663 C128.618876,3.55673762 130.06258,2.97010842 131.566141,2.96729476 C133.555417,3.11082108 135.50465,3.59875503 137.326945,4.40934454 C137.824323,4.59454721 138.351035,4.68849109 138.881771,4.68666181 C140.191126,4.59560373 141.469045,4.24359432 142.640344,3.65134401 C143.671786,3.12201175 144.796443,2.79861793 145.951512,2.6992214 C146.734137,2.70245115 147.493465,2.96585829 148.109965,3.44797802 L142.741103,13.5608144 L133.38904,13.5608144 L127.539495,4.60346663 Z M150.805489,51.8213533 L125.41432,51.8213533 C121.118132,51.7842329 117.661482,48.2788045 117.684563,43.9825185 C117.684563,36.7168061 120.313531,29.8208501 125.480876,23.4980164 C127.698469,20.7810799 130.250604,18.3553557 133.076596,16.2785236 L143.121027,16.2785236 C145.951837,18.3492652 148.504399,20.7756901 150.715823,23.4980164 C155.892412,29.8208501 158.51306,36.7075622 158.51306,43.9825185 C158.532757,46.0447803 157.731236,48.0301611 156.285294,49.5007274 C154.839353,50.9712938 152.867789,51.8062252 150.805489,51.8213533 Z" id="Shape-Copy-2"></path>
                        </g>
                    </g>
                </g>
            </g>
        </g>
    </g>
</svg>