<?xml version="1.0" encoding="UTF-8"?>
<svg width="60px" height="38px" viewBox="0 0 60 38" version="1.1" xmlns="http://www.w3.org/2000/svg" xmlns:xlink="http://www.w3.org/1999/xlink">
    <!-- Generator: Sketch 46.2 (44496) - http://www.bohemiancoding.com/sketch -->
    <title>Shape Copy</title>
    <desc>Created with Sketch.</desc>
    <defs></defs>
    <g id="Welcome" stroke="none" stroke-width="1" fill="none" fill-rule="evenodd">
        <g id="imassage-store" transform="translate(-531.000000, -2086.000000)" fill="#E33A36">
            <g id="help" transform="translate(0.000000, 1581.000000)">
                <g id="Group" transform="translate(407.000000, 257.000000)">
                    <g id="_2" transform="translate(0.000000, 244.000000)">
                        <g id="Group" transform="translate(0.000000, 4.000000)">
                            <path d="M147.874053,9.09494702e-13 L134.474053,9.09494702e-13 C133.9052,9.09494702e-13 133.444053,0.461146708 133.444053,1.03 C133.444053,1.59885329 133.9052,2.06 134.474053,2.06 L147.874053,2.06 C147.989765,2.06024324 148.100518,2.10700348 148.181393,2.18975895 C148.262268,2.27251442 148.30647,2.38431362 148.304053,2.5 L148.304053,9.57 C148.30573,9.8098078 148.113836,10.0061645 147.874053,10.01 L126.463053,10.01 C126.22327,10.0061645 126.031376,9.8098078 126.033053,9.57 L126.033053,2.5 C126.030637,2.38431362 126.074839,2.27251442 126.155714,2.18975895 C126.236588,2.10700348 126.347342,2.06024324 126.463053,2.06 L130.408053,2.06 C130.976907,2.06 131.438053,1.59885329 131.438053,1.03 C131.438053,0.461146708 130.976907,0 130.408053,0 L126.463053,0 C125.093124,0.0115532038 123.99118,1.13005086 124.000053,2.5 L124.000053,9.57 C123.996064,10.2269314 124.253414,10.8584976 124.715404,11.3255521 C125.177394,11.7926067 125.806117,12.0568269 126.463053,12.06 L147.874053,12.06 C148.530989,12.0568269 149.159712,11.7926067 149.621702,11.3255521 C150.083692,10.8584976 150.341042,10.2269314 150.337053,9.57 L150.337053,2.5 C150.345926,1.13005086 149.243982,0.0115532038 147.874053,9.09494702e-13 Z M149.229053,14.16 L133.239053,14.16 C131.872191,14.1699058 130.770612,15.2831096 130.775053,16.65 L130.775053,22.42 C130.770612,23.7868904 131.872191,24.9000942 133.239053,24.91 L149.229053,24.91 C150.595754,24.9000933 151.697047,23.7867278 151.692053,22.42 L151.692053,16.65 C151.697047,15.2832722 150.595754,14.1699067 149.229053,14.16 Z M149.660053,22.42 C149.660054,22.5342166 149.614613,22.6437406 149.533756,22.72441 C149.452899,22.8050795 149.343269,22.8502656 149.229053,22.85 L133.239053,22.85 C133.124756,22.8505332 133.014971,22.8054331 132.934056,22.7247056 C132.853141,22.6439781 132.807786,22.5342984 132.808053,22.42 L132.808053,16.65 C132.807786,16.5357016 132.853141,16.4260219 132.934056,16.3452944 C133.014971,16.2645669 133.124756,16.2194668 133.239053,16.22 L149.229053,16.22 C149.343269,16.2197344 149.452899,16.2649205 149.533756,16.34559 C149.614613,16.4262594 149.660054,16.5357834 149.660053,16.65 L149.660053,22.42 L149.660053,22.42 L149.660053,22.42 Z M150.584053,28.07 L134.594053,28.07 C133.223732,28.0810048 132.121182,29.1996637 132.130053,30.57 L132.130053,35.5 C132.121182,36.8703363 133.223732,37.9889952 134.594053,38 L150.584053,38 C151.953982,37.9884468 153.055926,36.8699491 153.047053,35.5 L153.047053,30.57 C153.055926,29.2000509 151.953982,28.0815532 150.584053,28.07 L150.584053,28.07 Z M151.015053,35.5 C151.017473,35.6158596 150.973135,35.7278125 150.892043,35.8105978 C150.810951,35.8933831 150.699938,35.9400253 150.584053,35.94 L134.594053,35.94 C134.478168,35.9400253 134.367155,35.8933831 134.286064,35.8105978 C134.204972,35.7278125 134.160633,35.6158596 134.163053,35.5 L134.163053,30.57 C134.161927,30.3300287 134.35411,30.1338326 134.594053,30.13 L150.584053,30.13 C150.823997,30.1338326 151.01618,30.3300287 151.015053,30.57 L151.015053,35.5 L151.015053,35.5 L151.015053,35.5 Z M181.537053,9.09494702e-13 L160.126053,9.09494702e-13 C158.756124,0.0115532038 157.65418,1.13005086 157.663053,2.5 L157.663053,9.57 C157.65418,10.9399491 158.756124,12.0584468 160.126053,12.07 L181.537053,12.07 C182.906982,12.0584468 184.008926,10.9399491 184.000053,9.57 L184.000053,2.5 C184.008926,1.13005086 182.906982,0.0115532038 181.537053,9.09494702e-13 L181.537053,9.09494702e-13 Z M181.967053,9.57 C181.96873,9.8098078 181.776836,10.0061645 181.537053,10.01 L160.126053,10.01 C159.88611,10.0061674 159.693927,9.80997129 159.695053,9.57 L159.695053,2.5 C159.692909,2.38421992 159.737337,2.27242602 159.818369,2.18970142 C159.899402,2.10697682 160.010254,2.06024819 160.126053,2.06 L181.537053,2.06 C181.652765,2.06024324 181.763518,2.10700348 181.844393,2.18975895 C181.925268,2.27251442 181.96947,2.38431362 181.967053,2.5 L181.967053,9.57 L181.967053,9.57 Z M174.761053,14.16 L158.771053,14.16 C157.404352,14.1699067 156.303059,15.2832722 156.308053,16.65 L156.308053,22.42 C156.303059,23.7867278 157.404352,24.9000933 158.771053,24.91 L174.761053,24.91 C176.127915,24.9000942 177.229495,23.7868904 177.225053,22.42 L177.225053,16.65 C177.229495,15.2831096 176.127915,14.1699058 174.761053,14.16 L174.761053,14.16 Z M175.192053,22.42 C175.192321,22.5342984 175.146966,22.6439781 175.066051,22.7247056 C174.985135,22.8054331 174.875351,22.8505332 174.761053,22.85 L158.771053,22.85 C158.656837,22.8502656 158.547208,22.8050795 158.466351,22.72441 C158.385494,22.6437406 158.340053,22.5342166 158.340053,22.42 L158.340053,16.65 C158.340053,16.5357834 158.385494,16.4262594 158.466351,16.34559 C158.547208,16.2649205 158.656837,16.2197344 158.771053,16.22 L174.761053,16.22 C174.875351,16.2194668 174.985135,16.2645669 175.066051,16.3452944 C175.146966,16.4260219 175.192321,16.5357016 175.192053,16.65 L175.192053,22.42 L175.192053,22.42 L175.192053,22.42 Z M173.406053,28.07 L157.416053,28.07 C156.046124,28.0815532 154.94418,29.2000509 154.953053,30.57 L154.953053,35.5 C154.94418,36.8699491 156.046124,37.9884468 157.416053,38 L165.911053,38 C166.479907,38 166.941053,37.5388533 166.941053,36.97 C166.941053,36.4011467 166.479907,35.94 165.911053,35.94 L157.416053,35.94 C157.300254,35.9397518 157.189402,35.8930232 157.108369,35.8102986 C157.027337,35.727574 156.982909,35.6157801 156.985053,35.5 L156.985053,30.57 C156.983927,30.3300287 157.17611,30.1338326 157.416053,30.13 L173.406053,30.13 C173.645997,30.1338326 173.83818,30.3300287 173.837053,30.57 L173.837053,35.5 C173.839473,35.6158596 173.795135,35.7278125 173.714043,35.8105978 C173.632951,35.8933831 173.521938,35.9400253 173.406053,35.94 L169.976053,35.94 C169.4072,35.9400004 168.946054,36.401147 168.946054,36.97 C168.946054,37.538853 169.4072,37.9999996 169.976053,38 L173.406053,38 C174.776374,37.9889952 175.878924,36.8703363 175.870053,35.5 L175.870053,30.57 C175.878924,29.1996637 174.776374,28.0810048 173.406053,28.07 L173.406053,28.07 Z" id="Shape-Copy"></path>
                        </g>
                    </g>
                </g>
            </g>
        </g>
    </g>
</svg>