<?xml version="1.0" encoding="UTF-8"?>
<svg width="54px" height="56px" viewBox="0 0 54 56" version="1.1" xmlns="http://www.w3.org/2000/svg" xmlns:xlink="http://www.w3.org/1999/xlink">
    <!-- Generator: Sketch 46.2 (44496) - http://www.bohemiancoding.com/sketch -->
    <title>Forma_1-8 Copy</title>
    <desc>Created with Sketch.</desc>
    <defs></defs>
    <g id="Welcome" stroke="none" stroke-width="1" fill="none" fill-rule="evenodd">
        <g id="imassage-store" transform="translate(-1313.000000, -1838.000000)" fill="#E33A36">
            <g id="help" transform="translate(0.000000, 1581.000000)">
                <g id="Group" transform="translate(407.000000, 257.000000)">
                    <g id="_1" transform="translate(51.000000, 0.000000)">
                        <g id="Group" transform="translate(727.000000, 0.000000)">
                            <path d="M158.246125,37.1400035 L158.246125,36.0300035 C160.972975,35.3498293 162.886476,32.9004032 162.886476,30.0900035 C162.886476,27.2796037 160.972975,24.8301776 158.246125,24.1500035 L158.246125,17.6600035 C159.407258,18.1214378 160.459592,18.8195876 161.336125,19.7100035 C161.588626,19.9789713 161.938869,20.1348283 162.30771,20.1423557 C162.676551,20.149883 163.032861,20.0084455 163.296125,19.7500035 C163.845255,19.2120194 163.867401,18.3350179 163.346125,17.7700035 C161.939727,16.3365005 160.180814,15.2983968 158.246125,14.7600035 L158.246125,13.6600035 C158.246125,12.8950891 157.62604,12.2750035 156.861125,12.2750035 C156.096211,12.2750035 155.476125,12.8950891 155.476125,13.6600035 L155.476125,14.7900035 C152.80342,15.5119641 150.946906,17.9365059 150.946906,20.7050035 C150.946906,23.473501 152.80342,25.8980429 155.476125,26.6200035 L155.476125,33.0000035 C154.324958,32.3794888 153.297844,31.5523743 152.446125,30.5600035 C151.951044,29.973336 151.074823,29.8973372 150.486125,30.3900035 C149.90393,30.8915684 149.828461,31.7661156 150.316125,32.3600035 C151.682294,34.0054867 153.463922,35.2553884 155.476125,35.9800035 L155.476125,37.1400035 C155.476125,37.9049178 156.096211,38.5250035 156.861125,38.5250035 C157.62604,38.5250035 158.246125,37.9049178 158.246125,37.1400035 Z M160.106125,30.0900035 C160.11433,31.364399 159.391243,32.5306682 158.246125,33.0900035 L158.246125,27.1000035 C159.390507,27.6549659 160.114113,28.8181822 160.106125,30.0900035 L160.106125,30.0900035 Z M153.726125,20.7000035 C153.717458,19.4734219 154.392067,18.3439333 155.476125,17.7700035 L155.476125,23.6400035 C154.393218,23.0598412 153.719809,21.9285135 153.726125,20.7000035 L153.726125,20.7000035 Z M154.216125,50.6600035 L154.366125,50.6600035 C154.710544,50.662189 155.042945,50.5335177 155.296125,50.3000035 C155.589689,50.0340282 155.756833,49.6561372 155.756125,49.2600035 L155.756125,41.1900035 C155.755648,40.5059377 155.260897,39.9223856 154.586125,39.8100035 C148.327352,38.752835 143.468712,33.7729317 142.566125,27.4900035 C142.472409,26.8044354 141.888064,26.292601 141.196125,26.2900035 L133.226125,26.2900035 C132.833625,26.2908312 132.45977,26.4575623 132.196885,26.7490218 C131.934,27.0404812 131.806592,27.4294984 131.846125,27.8200035 C132.941098,39.7757381 142.285739,49.3167126 154.216125,50.6600035 L154.216125,50.6600035 Z M140.036125,29.0900035 C140.714364,32.308224 142.300242,35.2648274 144.606125,37.6100035 C146.881977,39.9623831 149.788193,41.6081973 152.976125,42.3500035 L152.976125,47.6600035 C143.599674,45.9358651 136.320887,38.5009332 134.796125,29.0900035 L140.036125,29.0900035 L140.036125,29.0900035 Z M133.946125,41.2600035 C133.760943,40.941113 133.455674,40.7097488 133.098598,40.6176608 C132.741522,40.5255727 132.362434,40.5804447 132.046125,40.7700035 C131.3884,41.1713507 131.174649,42.0263557 131.566125,42.6900035 C131.606125,42.7500035 131.636125,42.8100035 131.666125,42.8600035 C131.916885,43.2775621 132.369062,43.532149 132.856125,43.5300035 C133.110314,43.5335704 133.360193,43.4641596 133.576125,43.3300035 C134.22894,42.9189149 134.433332,42.0613563 134.036125,41.4000035 L133.946125,41.2600035 Z M129.546125,33.3800035 C130.31042,33.291005 130.862233,32.6056891 130.786125,31.8400035 L130.766125,31.6700035 C130.719681,31.1769769 130.413738,30.7461794 129.963542,30.5398882 C129.513346,30.333597 128.987293,30.3831527 128.583542,30.6698882 C128.179791,30.9566237 127.959681,31.4369769 128.006125,31.9300035 L128.026125,32.1300035 C128.092138,32.8376066 128.68545,33.3789501 129.396125,33.3800035 L129.546125,33.3800035 L129.546125,33.3800035 Z M131.876125,36.7900035 L131.826125,36.6300035 C131.667142,36.1601992 131.269598,35.8108987 130.783244,35.7136801 C130.29689,35.6164614 129.795615,35.7860945 129.468244,36.1586801 C129.140873,36.5312657 129.037142,37.0501992 129.196125,37.5200035 L129.256125,37.7100035 C129.447891,38.2704602 129.973773,38.6478105 130.566125,38.6500035 C130.723141,38.6527056 130.879241,38.6255578 131.026125,38.5700035 C131.375182,38.4470787 131.660978,38.1903119 131.820447,37.8563651 C131.979916,37.5224184 131.999949,37.1387418 131.876125,36.7900035 L131.876125,36.7900035 Z M155.186125,53.2000035 L155.106125,53.2000035 C154.332927,53.2000035 153.706125,53.8268048 153.706125,54.6000035 C153.706125,55.3732021 154.332927,56.0000035 155.106125,56.0000035 L155.176125,56.0000035 C155.676297,56.0017898 156.139428,55.7366019 156.391061,55.3043336 C156.642694,54.8720652 156.6446,54.3383883 156.396061,53.9043336 C156.147522,53.4702789 155.686297,53.2017898 155.186125,53.2000035 L155.186125,53.2000035 Z M150.226125,52.7400035 L150.046125,52.7000035 C149.286734,52.5508868 148.550243,53.0456122 148.401126,53.8050035 C148.252009,54.5643949 148.746734,55.3008864 149.506125,55.4500035 L149.696125,55.4800035 C149.784756,55.4998538 149.875299,55.509914 149.966125,55.5100035 C150.678165,55.4962545 151.266417,54.9501527 151.332971,54.2410973 C151.399525,53.5320418 150.923169,52.8860129 150.226125,52.7400035 L150.226125,52.7400035 Z M145.376125,51.2700035 L145.206125,51.2000035 C144.499434,50.9150483 143.694882,51.2503277 143.399679,51.9528005 C143.104477,52.6552733 143.42802,53.464616 144.126125,53.7700035 L144.296125,53.8500035 C144.467706,53.9199731 144.650846,53.9572794 144.836125,53.9600035 C145.501614,53.9581241 146.073808,53.4880275 146.204788,52.8355528 C146.335768,52.1830782 145.989331,51.5285724 145.376125,51.2700035 L145.376125,51.2700035 Z M136.986125,45.3400035 C136.736451,45.0691596 136.388856,44.9093776 136.020724,44.8962301 C135.652593,44.8830825 135.294485,45.0176608 135.026125,45.2700035 C134.754051,45.5231539 134.593792,45.8740931 134.580662,46.2454921 C134.567532,46.6168912 134.702607,46.9782715 134.956125,47.2500035 L135.086125,47.3900035 C135.347112,47.6705213 135.712975,47.8299073 136.096125,47.8300035 C136.450285,47.832359 136.79129,47.695957 137.046125,47.4500035 C137.603258,46.9210285 137.630033,46.0419035 137.106125,45.4800035 L136.986125,45.3400035 Z M140.936125,48.8100035 L140.796125,48.7100035 C140.165291,48.3300377 139.347936,48.5037485 138.926154,49.107425 C138.504371,49.7111015 138.622374,50.5383374 139.196125,51.0000035 L139.356125,51.1100035 C139.587311,51.2729432 139.86329,51.3602781 140.146125,51.3600035 C140.601761,51.3600035 141.028162,51.1355819 141.286125,50.7600035 C141.719857,50.1231281 141.56427,49.2562856 140.936125,48.8100035 L140.936125,48.8100035 Z M156.856125,3.46620845e-06 C150.483611,-0.00335752303 144.352535,2.43761966 139.726125,6.82000347 C135.087912,11.1829824 132.257677,17.128974 131.796125,23.4800035 C131.765638,23.8665134 131.896799,24.2483595 132.158355,24.534555 C132.419911,24.8207504 132.788439,24.9856653 133.176125,24.9900035 L141.136125,24.9900035 C141.846695,24.9839398 142.440016,24.4465112 142.516125,23.7400035 C143.450854,16.2917448 149.932386,10.7991722 157.433074,11.0990998 C164.933762,11.3990274 170.956041,17.3915859 171.293074,24.890698 C171.630107,32.3898102 166.169668,38.8984368 158.726125,39.8700035 C158.03171,39.965124 157.514647,40.5591051 157.516125,41.2600035 L157.516125,49.3100035 C157.520403,49.7001202 157.68279,50.0718056 157.966125,50.3400035 C158.221162,50.57814 158.557195,50.7104085 158.906125,50.7100035 C158.946125,50.7100035 158.986125,50.7000035 159.026125,50.7000035 C165.285704,50.1544958 171.109588,47.2693345 175.336125,42.6200035 C182.099876,35.2147943 183.884971,24.5282118 179.895215,15.3267286 C175.905459,6.12524537 166.884587,0.124121865 156.856125,3.46620845e-06 Z M160.296125,47.7300035 L160.296125,42.4400035 C168.899314,40.7870116 174.926473,32.9880849 174.356735,24.2460812 C173.786998,15.5040774 166.798571,8.55340799 158.05361,8.0310372 C149.308648,7.50866641 141.542487,13.5779866 139.936125,22.1900035 L134.726125,22.1900035 C136.481967,10.8534949 146.524717,2.67982296 157.981579,3.262673 C169.438441,3.84552305 178.599843,12.9961763 179.196142,24.4523464 C179.792442,35.9085165 171.630565,45.960855 160.296125,47.7300035 L160.296125,47.7300035 Z" id="Forma_1-8-Copy"></path>
                        </g>
                    </g>
                </g>
            </g>
        </g>
    </g>
</svg>