<?xml version="1.0" encoding="UTF-8"?>
<svg width="47px" height="50px" viewBox="0 0 47 50" version="1.1" xmlns="http://www.w3.org/2000/svg" xmlns:xlink="http://www.w3.org/1999/xlink">
    <!-- Generator: Sketch 46.2 (44496) - http://www.bohemiancoding.com/sketch -->
    <title>bar-chart</title>
    <desc>Created with Sketch.</desc>
    <defs></defs>
    <g id="Welcome" stroke="none" stroke-width="1" fill="none" fill-rule="evenodd">
        <g id="imassage-store" transform="translate(-1038.000000, -1325.000000)" fill-rule="nonzero" fill="#E33A36">
            <g id="features" transform="translate(425.000000, 909.000000)">
                <g id="4-list" transform="translate(0.000000, 165.000000)">
                    <g id="b1-copy-3" transform="translate(613.000000, 240.000000)">
                        <g id="bar-chart" transform="translate(0.000000, 11.000000)">
                            <path d="M45.5866934,47.1785871 L43.4835065,47.1785871 L43.4835065,16.6406165 C43.4835065,15.2192177 42.3270558,14.0628628 40.9057529,14.0628628 L36.2047711,14.0628628 C34.7833723,14.0628628 33.6270174,15.2193136 33.6270174,16.6406165 L33.6270174,47.1785871 L28.2866315,47.1785871 L28.2866315,30.4766961 C28.2866315,29.0552973 27.1302767,27.8989424 25.7088779,27.8989424 L21.0078961,27.8989424 C19.5864973,27.8989424 18.4301425,29.0553932 18.4301425,30.4766961 L18.4301425,47.1785871 L13.0897565,47.1785871 L13.0897565,38.5287959 C13.0897565,37.1073972 11.9333058,35.9510423 10.5120029,35.9510423 L5.81092521,35.9510423 C4.38952643,35.9510423 3.23317159,37.107493 3.23317159,38.5287959 L3.23317159,47.1785871 L1.01654513,47.1785871 C0.486936718,47.1785871 0.0576307538,47.6078931 0.0576307538,48.1375015 C0.0576307538,48.6671099 0.486936718,49.0964159 1.01654513,49.0964159 L45.5866934,49.0964159 C46.1163018,49.0964159 46.5456078,48.6671099 46.5456078,48.1375015 C46.5456078,47.6078931 46.1163018,47.1785871 45.5866934,47.1785871 Z M11.171736,47.1785871 L5.15090444,47.1785871 L5.15090444,38.5287959 C5.15090444,38.1648879 5.44692131,37.8688711 5.81082932,37.8688711 L10.5118111,37.8688711 C10.8757191,37.8688711 11.171736,38.1648879 11.171736,38.5287959 L11.171736,47.1785871 Z M26.3687069,47.1785871 L20.3478753,47.1785871 L20.3478753,30.4766961 C20.3478753,30.112788 20.6438922,29.8167712 21.0078002,29.8167712 L25.708782,29.8167712 C26.0725941,29.8167712 26.3687069,30.112788 26.3687069,30.4766961 L26.3687069,47.1785871 Z M41.5656778,47.1785871 L35.5448462,47.1785871 L35.5448462,16.6406165 C35.5448462,16.2767085 35.8408631,15.9806916 36.2047711,15.9806916 L40.9057529,15.9806916 C41.2696609,15.9806916 41.5656778,16.2767085 41.5656778,16.6406165 L41.5656778,47.1785871 Z" id="Shape"></path>
                            <path d="M43.4812051,1.00839435 C43.4946299,0.746706622 43.4025741,0.480607884 43.2027364,0.280770128 C43.0028986,0.0809323731 42.7367999,-0.0112192982 42.4751121,0.00230139449 C42.4596736,0.00163015443 42.4444269,0 42.4287007,0 L36.6272687,0 C36.0976603,0 35.6683544,0.429305965 35.6683544,0.958914373 C35.6683544,1.48852278 36.0976603,1.91782875 36.6272687,1.91782875 L40.2094852,1.91782875 L30.7299453,11.3974645 L27.1551126,7.82263167 C26.9753161,7.64283523 26.7313683,7.54176565 26.4770642,7.54176565 C26.2227601,7.54176565 25.9788123,7.64283523 25.7990159,7.82263167 L8.56070806,25.0610353 C8.186252,25.4354914 8.186252,26.042676 8.56070806,26.4172279 C8.74798404,26.6043121 8.99337023,26.6979022 9.23875642,26.6979022 C9.4841426,26.6979022 9.72962468,26.6043121 9.91680477,26.4170362 L26.4770642,9.85668084 L30.051897,13.4315136 C30.426353,13.8059697 31.0335376,13.8059697 31.4080896,13.4315136 L41.5656778,3.27402134 L41.5656778,6.51611084 C41.5656778,7.04571925 41.9949837,7.47502521 42.5245921,7.47502521 C43.0542005,7.47502521 43.4835065,7.04571925 43.4835065,6.51611084 L43.4835065,1.05480581 C43.4835065,1.03917551 43.4818763,1.02392877 43.4812051,1.00839435 Z" id="Shape"></path>
                            <circle id="Oval" cx="6.00663963" cy="29.0848318" r="1"></circle>
                        </g>
                    </g>
                </g>
            </g>
        </g>
    </g>
</svg>