<?xml version="1.0" encoding="UTF-8"?>
<svg width="37px" height="48px" viewBox="0 0 37 48" version="1.1" xmlns="http://www.w3.org/2000/svg" xmlns:xlink="http://www.w3.org/1999/xlink">
    <!-- Generator: Sketch 46.2 (44496) - http://www.bohemiancoding.com/sketch -->
    <title>process</title>
    <desc>Created with Sketch.</desc>
    <defs></defs>
    <g id="Welcome" stroke="none" stroke-width="1" fill="none" fill-rule="evenodd">
        <g id="imassage-store" transform="translate(-381.000000, -2810.000000)" fill="#E33A36">
            <g id="benifits" transform="translate(375.000000, 2402.000000)">
                <g id="list" transform="translate(0.000000, 238.000000)">
                    <g id="b1-copy-5" transform="translate(6.000000, 164.000000)">
                        <g id="process" transform="translate(0.000000, 6.000000)">
                            <path d="M32.9764468,3.99737705 L28.7671064,3.99737705 C28.3383342,2.80064771 27.2047832,2.00121889 25.9330638,1.99868852 L22.8943404,1.99868852 C21.9489528,0.74037949 20.4663689,-1.64879092e-06 18.8920426,-1.64879092e-06 C17.3177162,-1.64879092e-06 15.8351323,0.74037949 14.8897447,1.99868852 L11.850234,1.99868852 C10.5785146,2.00121889 9.44496369,2.80064771 9.01619149,3.99737705 L4.80685106,3.99737705 C3.7418982,3.99507906 2.7196614,4.41579369 1.96507563,5.16694607 C1.21048987,5.91809845 0.785383539,6.93814149 0.783297872,8.00262295 L0.783297872,44.002623 C0.791977444,46.2162385 2.59224244,48.0047915 4.80685106,48 L32.9725106,48 C35.1871193,48.0047915 36.9873843,46.2162385 36.9960638,44.002623 L36.9960638,8.00262295 C36.99172,5.78747012 35.1925842,3.99476673 32.9764468,3.99737705 L32.9764468,3.99737705 Z M10.8465106,4.99672131 C10.8491129,4.4434213 11.2990451,3.99650368 11.8525957,3.99737705 L15.4297872,3.99737705 C15.7859097,3.99710849 16.1153131,3.80853378 16.2957447,3.50163934 C16.8282138,2.56945514 17.819717,1.99408081 18.893617,1.99408081 C19.9675171,1.99408081 20.9590202,2.56945514 21.4914894,3.50163934 C21.6720368,3.80841663 22.0013668,3.99694932 22.3574468,3.99737705 L25.9338511,3.99737705 C26.4870947,3.99693755 26.9365477,4.44372874 26.9391489,4.99672131 L26.9391489,6.00393443 C26.9348093,7.11058831 26.0349167,8.00480138 24.927766,8.00262295 L12.8578936,8.00262295 C11.7507428,8.00480138 10.8508503,7.11058831 10.8465106,6.00393443 L10.8465106,4.99672131 L10.8465106,4.99672131 L10.8465106,4.99672131 Z M34.9878298,44.002623 C34.9834902,45.1092768 34.0835976,46.0034899 32.9764468,46.0013115 L4.81078723,46.0013115 C3.70363645,46.0034899 2.80374389,45.1092768 2.79940426,44.002623 L2.79940426,8.00262295 C2.80374389,6.89596906 3.70363645,6.001756 4.81078723,6.00393443 L8.83434043,6.00393443 C8.84302,8.21755002 10.643285,10.006103 12.8578936,10.0013115 L24.9293404,10.0013115 C27.143949,10.006103 28.944214,8.21755002 28.9528936,6.00393443 L32.9764468,6.00393443 C34.0837263,6.00175482 34.9838445,6.89584216 34.988617,8.00262295 L34.988617,44.002623 L34.988617,44.002623 L34.9878298,44.002623 Z M9.84042553,15.997377 C8.18412956,16.0051899 6.84683035,17.3518581 6.85131149,19.0074326 C6.85579262,20.6630071 8.20036224,22.0024228 9.85667626,22.0012773 C11.5129903,22.0001319 12.8557044,20.6588578 12.8578936,19.0032787 C12.8544187,17.3406103 11.5038332,15.9952017 9.84042553,15.997377 L9.84042553,15.997377 Z M9.84042553,20.002623 C9.43431611,20.0016647 9.06880192,19.7561914 8.91442258,19.3807346 C8.76004324,19.0052778 8.84722347,18.5738317 9.13528718,18.287698 C9.4233509,18.0015643 9.8555272,17.9171337 10.2301736,18.0737992 C10.60482,18.2304647 10.8481021,18.5973512 10.8465106,19.0032787 C10.8439084,19.5565787 10.3939762,20.0034963 9.84042553,20.002623 Z M9.84042553,25.9986885 C8.18310512,26.0065061 6.84538769,27.354773 6.85131965,29.011367 C6.8572516,30.6679609 8.20459042,32.0066216 9.86192436,32.0025806 C11.5192583,31.9985396 12.8600473,30.6533245 12.8578936,28.9967213 C12.8509515,27.3367674 11.5011269,25.995637 9.84042553,25.9986885 L9.84042553,25.9986885 Z M9.84042553,29.9960656 C9.28909146,29.9925941 8.84463324,29.5436469 8.84694496,28.992551 C8.84925668,28.4414551 9.29746567,27.9962492 9.84880948,27.9973991 C10.4001533,27.9985489 10.8464997,28.4456206 10.8465106,28.9967213 C10.8465159,29.2628582 10.7403174,29.518004 10.5514566,29.7055994 C10.3625958,29.8931948 10.1066751,29.997742 9.84042553,29.9960656 L9.84042553,29.9960656 Z M9.84042553,36 C8.18310512,36.0078176 6.84538769,37.3560845 6.85131965,39.0126784 C6.8572516,40.6692724 8.20459042,42.0079331 9.86192436,42.0038921 C11.5192583,41.999851 12.8600473,40.6546359 12.8578936,38.9980328 C12.8509515,37.3380789 11.5011269,35.9969484 9.84042553,36 L9.84042553,36 Z M9.84042553,39.997377 C9.28909146,39.9939055 8.84463324,39.5449584 8.84694496,38.9938625 C8.84925668,38.4427666 9.29746567,37.9975606 9.84880948,37.9987105 C10.4001533,37.9998604 10.8464997,38.4469321 10.8465106,38.9980328 C10.8439084,39.5513328 10.3939762,39.9982504 9.84042553,39.997377 L9.84042553,39.997377 Z M29.9581915,17.9960656 L17.8875319,17.9960656 C17.3331908,17.9960656 16.8838085,18.4452487 16.8838085,18.9993443 C16.8838085,19.5534398 17.3331908,20.002623 17.8875319,20.002623 L29.9581915,20.002623 C30.5125326,20.002623 30.9619149,19.5534398 30.9619149,18.9993443 C30.9619149,18.4452487 30.5125326,17.9960656 29.9581915,17.9960656 Z M29.9581915,27.997377 L17.8875319,27.997377 C17.3353647,27.997377 16.8877447,28.4447987 16.8877447,28.9967213 C16.8877447,29.5486439 17.3353647,29.9960656 17.8875319,29.9960656 L29.9581915,29.9960656 C30.5103587,29.9960656 30.9579787,29.5486439 30.9579787,28.9967213 C30.9579787,28.4447987 30.5103587,27.997377 29.9581915,27.997377 L29.9581915,27.997377 Z M29.9581915,37.9986885 L17.8875319,37.9986885 C17.3353647,37.9986885 16.8877447,38.4461102 16.8877447,38.9980328 C16.8877447,39.5499554 17.3353647,39.997377 17.8875319,39.997377 L29.9581915,39.997377 C30.5103587,39.997377 30.9579787,39.5499554 30.9579787,38.9980328 C30.9579787,38.4461102 30.5103587,37.9986885 29.9581915,37.9986885 L29.9581915,37.9986885 Z" id="Shape"></path>
                        </g>
                    </g>
                </g>
            </g>
        </g>
    </g>
</svg>