<?xml version="1.0" encoding="UTF-8"?>
<svg width="46px" height="46px" viewBox="0 0 46 46" version="1.1" xmlns="http://www.w3.org/2000/svg" xmlns:xlink="http://www.w3.org/1999/xlink">
    <!-- Generator: Sketch 46.2 (44496) - http://www.bohemiancoding.com/sketch -->
    <title>devices</title>
    <desc>Created with Sketch.</desc>
    <defs></defs>
    <g id="Welcome" stroke="none" stroke-width="1" fill="none" fill-rule="evenodd">
        <g id="imassage-store" transform="translate(-1038.000000, -1088.000000)" fill-rule="nonzero" fill="#E33A36">
            <g id="features" transform="translate(425.000000, 909.000000)">
                <g id="4-list" transform="translate(0.000000, 165.000000)">
                    <g id="b1-copy" transform="translate(613.000000, 0.000000)">
                        <g id="devices" transform="translate(0.000000, 14.000000)">
                            <path d="M24.6591149,29.8092221 C25.0621236,29.8092221 25.3886745,29.4825739 25.3886745,29.0796625 C25.3886745,28.676751 25.0621236,28.3501029 24.6591149,28.3501029 L1.56738587,28.3501029 C1.50970202,28.3501029 1.45911922,28.2994228 1.45911922,28.2417389 L1.45911922,1.56748314 C1.45911922,1.5097993 1.5097993,1.45911922 1.56738587,1.45911922 L36.7587151,1.45911922 C36.816399,1.45911922 36.8669818,1.5097993 36.8669818,1.56748314 L36.8669818,14.4078296 C36.8669818,14.810741 37.1935326,15.1373892 37.5965414,15.1373892 C37.9995501,15.1373892 38.326101,14.810741 38.326101,14.4078296 L38.326101,1.56748314 C38.3261983,0.703198191 37.6230001,0 36.7588124,0 L1.56738587,0 C0.703198191,0 0,0.703198191 0,1.56748314 L0,28.2417389 C0,29.1060239 0.703198191,29.8092221 1.56738587,29.8092221 L14.7182329,29.8092221 L14.7182329,34.2152758 L9.10840584,34.2152758 C8.70539711,34.2152758 8.37884623,34.5419239 8.37884623,34.9448354 C8.37884623,35.3477468 8.70539711,35.674395 9.10840584,35.674395 L24.6591149,35.674395 C25.0621236,35.674395 25.3886745,35.3477468 25.3886745,34.9448354 C25.3886745,34.5419239 25.0621236,34.2152758 24.6591149,34.2152758 L23.6078681,34.2152758 L23.6078681,29.8092221 L24.6591149,29.8092221 Z M22.1487489,34.2152758 L16.1773521,34.2152758 L16.1773521,29.8092221 L22.1487489,29.8092221 L22.1487489,34.2152758 Z" id="Shape"></path>
                            <path d="M24.6591149,23.4056342 L3.64779806,23.4056342 C3.24478933,23.4056342 2.91823845,23.7322823 2.91823845,24.1351938 C2.91823845,24.5381053 3.24478933,24.8647534 3.64779806,24.8647534 L24.6591149,24.8647534 C25.0621236,24.8647534 25.3886745,24.5381053 25.3886745,24.1351938 C25.3886745,23.7322823 25.0621236,23.4056342 24.6591149,23.4056342 Z" id="Shape"></path>
                            <path d="M44.1516831,16.5964111 L28.4151796,16.5964111 C27.5508946,16.5964111 26.8477937,17.2996093 26.8477937,18.1638943 L26.8477937,44.1516831 C26.8477937,45.0159681 27.5509919,45.7191663 28.4151796,45.7191663 L44.1515858,45.7191663 C45.0158708,45.7191663 45.7189717,45.0159681 45.7189717,44.1516831 L45.7189717,18.1638943 C45.719069,17.2995121 45.0158708,16.5964111 44.1516831,16.5964111 L44.1516831,16.5964111 Z M28.3069129,20.9737688 L44.2599498,20.9737688 L44.2599498,38.4234729 L28.3069129,38.4234729 L28.3069129,20.9737688 Z M28.4151796,18.0555304 L44.1515858,18.0555304 C44.2092697,18.0555304 44.2598525,18.1062104 44.2598525,18.1638943 L44.2598525,19.5146496 L28.3069129,19.5146496 L28.3069129,18.1638943 C28.3069129,18.1061132 28.357593,18.0555304 28.4151796,18.0555304 Z M44.1516831,44.2599498 L28.4151796,44.2599498 C28.3574957,44.2599498 28.3069129,44.2092697 28.3069129,44.1515858 L28.3069129,39.8825921 L44.2599498,39.8825921 L44.2599498,44.1515858 C44.2599498,44.2092697 44.2092697,44.2599498 44.1516831,44.2599498 Z" id="Shape"></path>
                            <path d="M37.7425506,41.3417113 L34.8243121,41.3417113 C34.4213034,41.3417113 34.0947525,41.6683595 34.0947525,42.0712709 C34.0947525,42.4741824 34.4213034,42.8008305 34.8243121,42.8008305 L37.7425506,42.8008305 C38.1455593,42.8008305 38.4721102,42.4741824 38.4721102,42.0712709 C38.4721102,41.6683595 38.1455593,41.3417113 37.7425506,41.3417113 Z" id="Shape"></path>
                        </g>
                    </g>
                </g>
            </g>
        </g>
    </g>
</svg>