<?xml version="1.0" encoding="UTF-8"?>
<svg width="52px" height="45px" viewBox="0 0 52 45" version="1.1" xmlns="http://www.w3.org/2000/svg" xmlns:xlink="http://www.w3.org/1999/xlink">
    <!-- Generator: Sketch 46.2 (44496) - http://www.bohemiancoding.com/sketch -->
    <title>Shape</title>
    <desc>Created with Sketch.</desc>
    <defs></defs>
    <g id="Welcome" stroke="none" stroke-width="1" fill="none" fill-rule="evenodd">
        <g id="imassage-store" transform="translate(-1314.000000, -2083.000000)" fill="#E33A36">
            <g id="help" transform="translate(0.000000, 1581.000000)">
                <g id="Group" transform="translate(407.000000, 257.000000)">
                    <g id="_2" transform="translate(0.000000, 244.000000)">
                        <g id="Group" transform="translate(770.000000, 1.000000)">
                            <g transform="translate(137.000000, 0.000000)" id="Shape">
                                <path d="M36.5,24.0700047 L29.52,24.0700047 C27.623555,24.0578064 26.0754062,25.5835831 26.06,27.4800047 L26.06,32.7600047 C26.0754062,34.6564264 27.623555,36.182203 29.52,36.1700047 L36.5,36.1700047 C37.4123551,36.177996 38.2905133,35.8232104 38.9412721,35.1837039 C39.5920309,34.5441974 39.9620781,33.6723604 39.97,32.7600047 L39.97,27.4800047 C39.9620781,26.5676491 39.5920309,25.6958121 38.9412721,25.0563056 C38.2905133,24.416799 37.4123551,24.0620134 36.5,24.0700047 L36.5,24.0700047 Z M37.45,32.7600047 C37.4412466,33.2777678 37.0178321,33.6922683 36.5,33.6900047 L29.52,33.6900047 C29.005399,33.6884165 28.5870918,33.2745594 28.58,32.7600047 L28.58,27.4800047 C28.5838517,26.9640776 29.0040612,26.5483385 29.52,26.5500047 L36.5,26.5500047 C36.7493862,26.5470718 36.9896942,26.6434721 37.1679151,26.817941 C37.346136,26.9924098 37.4476268,27.2306126 37.45,27.4800047 L37.45,32.7600047 L37.45,32.7600047 Z M51.38,14.4800047 C51.3843508,14.2644036 51.3252341,14.0522789 51.21,13.8700047 L43.57,0.630004731 C43.3432048,0.242463629 42.9290153,0.00306970421 42.48,4.73060027e-06 L8.89,4.73060027e-06 C8.43982678,-0.00122998357 8.0236475,0.239314004 7.8,0.630004731 L0.17,13.8700047 C0.0594638304,14.0543313 0.00073148758,14.2650768 0,14.4800047 C0.0161571395,17.3741734 1.74861515,19.9826816 4.41,21.1200047 L4.41,42.9500047 C4.4149481,43.6422041 4.97778319,44.2005722 5.67,44.2000047 L45.7,44.2000047 C46.3922168,44.2005722 46.9550519,43.6422041 46.96,42.9500047 L46.96,21.2800047 C46.9624265,21.2331045 46.9590679,21.1860839 46.95,21.1400047 C49.6225349,20.0019112 51.3633933,17.3847291 51.38,14.4800047 Z M9.63,2.49000473 L41.74,2.49000473 L47.72,12.8500047 L3.67,12.8500047 L9.63,2.49000473 Z M36.57,15.3200047 C36.1269992,17.6014363 34.1290439,19.2487529 31.805,19.2487529 C29.4809561,19.2487529 27.4830008,17.6014363 27.04,15.3200047 L36.57,15.3200047 L36.57,15.3200047 Z M24.36,15.3200047 C23.9122103,17.6027934 21.9112931,19.2493452 19.585,19.2493452 C17.2587069,19.2493452 15.2577897,17.6027934 14.81,15.3200047 L24.36,15.3200047 Z M2.6,15.3200047 L12.15,15.3200047 C11.7022103,17.6027934 9.7012931,19.2493452 7.375,19.2493452 C5.0487069,19.2493452 3.04778966,17.6027934 2.6,15.3200047 Z M21.17,41.7100047 L13.92,41.7100047 L13.92,28.3200047 C13.9287994,27.334395 14.7343816,26.5422392 15.72,26.5500047 L19.38,26.5500047 C20.3656184,26.5422392 21.1712006,27.334395 21.18,28.3200047 L21.18,41.7100047 L21.17,41.7100047 L21.17,41.7100047 Z M44.44,41.7100047 L23.69,41.7100047 L23.69,28.3200047 C23.6658144,25.9555254 21.7345589,24.0555635 19.37,24.0700047 L15.71,24.0700047 C13.3438761,24.051703 11.4103512,25.9538975 11.39,28.3200047 L11.39,41.7200047 L6.93,41.7200047 L6.93,21.7300047 C7.08,21.7400047 7.22,21.7400047 7.37,21.7400047 C8.75479284,19.7302573 11.0393575,18.5300285 13.48,18.5300285 C15.9206425,18.5300285 18.2052072,19.7302573 19.59,21.7400047 C20.9725244,19.7302401 23.2556297,18.5296565 25.695,18.5296565 C28.1343703,18.5296565 30.4174756,19.7302401 31.8,21.7400047 C33.1825244,19.7302401 35.4656297,18.5296565 37.905,18.5296565 C40.3443703,18.5296565 42.6274756,19.7302401 44.01,21.7400047 C44.16,21.7400047 44.29,21.7300047 44.44,21.7300047 L44.44,41.7100047 L44.44,41.7100047 L44.44,41.7100047 Z M44.01,19.2600047 C41.6814391,19.2742829 39.6767703,17.6191676 39.25,15.3300047 L48.79,15.3300047 C48.3446491,17.6164078 46.339367,19.2651021 44.01,19.2600047 Z"></path>
                            </g>
                        </g>
                    </g>
                </g>
            </g>
        </g>
    </g>
</svg>