<?xml version="1.0" encoding="UTF-8"?>
<svg width="46px" height="44px" viewBox="0 0 46 44" version="1.1" xmlns="http://www.w3.org/2000/svg" xmlns:xlink="http://www.w3.org/1999/xlink">
    <!-- Generator: Sketch 46.2 (44496) - http://www.bohemiancoding.com/sketch -->
    <title>Shape</title>
    <desc>Created with Sketch.</desc>
    <defs></defs>
    <g id="Welcome" stroke="none" stroke-width="1" fill="none" fill-rule="evenodd">
        <g id="imassage-store" transform="translate(-425.000000, -1089.000000)" fill="#E33A36">
            <g id="features" transform="translate(425.000000, 909.000000)">
                <g id="4-list" transform="translate(0.000000, 165.000000)">
                    <g id="b1" transform="translate(0.000000, 1.000000)">
                        <path d="M42.0495538,14 L3.64579751,14 C1.6264913,14.0085248 -0.0046571554,15.6503672 1.36594868e-05,17.669686 L1.36594868e-05,47.0552944 C-0.00544363859,49.0760832 1.62503474,50.7203952 3.64579751,50.7320105 L17.7431565,50.7320105 L17.7431565,56.1170287 L12.6393403,56.1170287 C12.2336097,56.1170287 11.9047001,56.4459383 11.9047001,56.8516689 C11.9047001,57.2573995 12.2336097,57.5863091 12.6393403,57.5863091 L33.0560111,57.5863091 C33.4617417,57.5863091 33.7906513,57.2573995 33.7906513,56.8516689 C33.7906513,56.4459383 33.4617417,56.1170287 33.0560111,56.1170287 L27.9521949,56.1170287 L27.9521949,50.7320105 L42.0495538,50.7320105 C44.0703166,50.7203952 45.700795,49.0760832 45.6953377,47.0552944 L45.6953377,17.669686 C45.7000085,15.6503672 44.0688601,14.0085248 42.0495538,14 L42.0495538,14 Z M26.4934595,56.1170287 L19.2018918,56.1170287 L19.2018918,50.7320105 L26.4934595,50.7320105 L26.4934595,56.1170287 Z M44.2373054,47.0552944 C44.2408142,48.2682029 43.2624451,49.2553748 42.0495538,49.2627301 L3.64579751,49.2627301 C2.43290623,49.2553748 1.4545372,48.2682029 1.458046,47.0552944 L1.458046,44.8548888 L44.2373054,44.8548888 L44.2373054,47.0552944 L44.2373054,47.0552944 Z M44.2373054,43.3856084 L1.458046,43.3856084 L1.458046,17.669686 C1.45725609,16.4590427 2.43516981,15.4754727 3.64579751,15.4692804 L42.0495538,15.4692804 C43.2601815,15.4754727 44.2380953,16.4590427 44.2373054,17.669686 L44.2373054,43.3856084 L44.2373054,43.3856084 Z M42.0495538,16.9385608 L3.64579751,16.9385608 C3.24299272,16.9401084 2.91716531,17.2668784 2.91678134,17.669686 L2.91678134,41.1781727 C2.91547216,41.3727609 2.99156662,41.5598889 3.1283046,41.6983411 C3.26504257,41.8367932 3.45120814,41.9152129 3.64579751,41.916328 L35.2437626,41.916328 C35.6494932,41.916328 35.9784028,41.5874183 35.9784028,41.1816878 C35.9784028,40.7759572 35.6494932,40.4470475 35.2437626,40.4470475 L4.37481368,40.4470475 L4.37481368,18.4078413 L41.3205377,18.4078413 L41.3205377,40.4470475 L38.1570152,40.4470475 C37.7512847,40.4470475 37.422375,40.7759572 37.422375,41.1816878 C37.422375,41.5874183 37.7512847,41.916328 38.1570152,41.916328 L42.0460388,41.916328 C42.2406282,41.9152129 42.4267938,41.8367932 42.5635317,41.6983411 C42.7002697,41.5598889 42.7763642,41.3727609 42.775055,41.1781727 L42.775055,17.669686 C42.7746844,17.2682406 42.4509845,16.9420314 42.0495538,16.9385608 Z" id="Shape"></path>
                    </g>
                </g>
            </g>
        </g>
    </g>
</svg>