<?xml version="1.0" encoding="UTF-8"?>
<svg width="45px" height="45px" viewBox="0 0 45 45" version="1.1" xmlns="http://www.w3.org/2000/svg" xmlns:xlink="http://www.w3.org/1999/xlink">
    <!-- Generator: Sketch 46.2 (44496) - http://www.bohemiancoding.com/sketch -->
    <title>booking</title>
    <desc>Created with Sketch.</desc>
    <defs></defs>
    <g id="Welcome" stroke="none" stroke-width="1" fill="none" fill-rule="evenodd">
        <g id="imassage-store" transform="translate(-425.000000, -1327.000000)" fill-rule="nonzero" fill="#E33A36">
            <g id="features" transform="translate(425.000000, 909.000000)">
                <g id="4-list" transform="translate(0.000000, 165.000000)">
                    <g id="b1-copy-2" transform="translate(0.000000, 240.000000)">
                        <g id="booking" transform="translate(0.000000, 13.000000)">
                            <path d="M40.9908882,5.96231102 L40.2455994,5.96231102 L40.2455994,2.23586663 C40.2455994,1.00315883 39.2424405,0 38.0097327,0 L36.519155,0 C35.2864472,0 34.2832883,1.00315883 34.2832883,2.23586663 L34.2832883,5.96231102 L10.4340443,5.96231102 L10.4340443,2.23586663 C10.4340443,1.00315883 9.43088545,0 8.19817765,0 L6.70759989,0 C5.47489209,0 4.47173326,1.00315883 4.47173326,2.23586663 L4.47173326,5.96231102 L3.72644439,5.96231102 C1.67168295,5.96231102 0,7.63399397 0,9.6887554 L0,40.9908882 C0,43.0456497 1.67168295,44.7173326 3.72644439,44.7173326 L40.9908882,44.7173326 C43.0456497,44.7173326 44.7173326,43.0456497 44.7173326,40.9908882 L44.7173326,9.6887554 C44.7173326,7.63399397 43.0456497,5.96231102 40.9908882,5.96231102 Z M35.7738661,6.70759989 L35.7738661,2.23586663 C35.7738661,1.82446717 36.1077555,1.49057775 36.519155,1.49057775 L38.0097327,1.49057775 C38.4211322,1.49057775 38.7550216,1.82446717 38.7550216,2.23586663 L38.7550216,6.70759989 L38.7550216,9.6887554 C38.7550216,10.1001549 38.4211322,10.4340443 38.0097327,10.4340443 L36.519155,10.4340443 C36.1077555,10.4340443 35.7738661,10.1001549 35.7738661,9.6887554 L35.7738661,6.70759989 Z M5.96231102,6.70759989 L5.96231102,2.23586663 C5.96231102,1.82446717 6.29620043,1.49057775 6.70759989,1.49057775 L8.19817765,1.49057775 C8.60957711,1.49057775 8.94346653,1.82446717 8.94346653,2.23586663 L8.94346653,6.70759989 L8.94346653,9.6887554 C8.94346653,10.1001549 8.60957711,10.4340443 8.19817765,10.4340443 L6.70759989,10.4340443 C6.29620043,10.4340443 5.96231102,10.1001549 5.96231102,9.6887554 L5.96231102,6.70759989 Z M43.2267549,40.9908882 C43.2267549,42.223596 42.223596,43.2267549 40.9908882,43.2267549 L3.72644439,43.2267549 C2.49373658,43.2267549 1.49057775,42.223596 1.49057775,40.9908882 L1.49057775,19.3775108 L43.2267549,19.3775108 L43.2267549,40.9908882 Z M43.2267549,17.8869331 L1.49057775,17.8869331 L1.49057775,9.6887554 C1.49057775,8.4560476 2.49373658,7.45288877 3.72644439,7.45288877 L4.47173326,7.45288877 L4.47173326,9.6887554 C4.47173326,10.9214632 5.47489209,11.924622 6.70759989,11.924622 L8.19817765,11.924622 C9.43088545,11.924622 10.4340443,10.9214632 10.4340443,9.6887554 L10.4340443,7.45288877 L34.2832883,7.45288877 L34.2832883,9.6887554 C34.2832883,10.9214632 35.2864472,11.924622 36.519155,11.924622 L38.0097327,11.924622 C39.2424405,11.924622 40.2455994,10.9214632 40.2455994,9.6887554 L40.2455994,7.45288877 L40.9908882,7.45288877 C42.223596,7.45288877 43.2267549,8.4560476 43.2267549,9.6887554 L43.2267549,17.8869331 Z" id="Shape"></path>
                            <path d="M30.556844,9.6887554 L14.1604887,9.6887554 C13.7483439,9.6887554 13.4151998,10.0218995 13.4151998,10.4340443 L13.4151998,14.9057775 C13.4151998,15.3179223 13.7483439,15.6510664 14.1604887,15.6510664 L30.556844,15.6510664 C30.9689887,15.6510664 31.3021328,15.3179223 31.3021328,14.9057775 L31.3021328,10.4340443 C31.3021328,10.0218995 30.9689887,9.6887554 30.556844,9.6887554 Z M29.8115551,14.1604887 L14.9057775,14.1604887 L14.9057775,11.1793332 L29.8115551,11.1793332 L29.8115551,14.1604887 Z" id="Shape"></path>
                            <path d="M9.6887554,21.6133774 L5.21702214,21.6133774 C4.80487739,21.6133774 4.47173326,21.9465216 4.47173326,22.3586663 L4.47173326,26.0851107 C4.47173326,26.4972554 4.80487739,26.8303996 5.21702214,26.8303996 L9.6887554,26.8303996 C10.1009002,26.8303996 10.4340443,26.4972554 10.4340443,26.0851107 L10.4340443,22.3586663 C10.4340443,21.9465216 10.1009002,21.6133774 9.6887554,21.6133774 Z M8.94346653,25.3398218 L5.96231102,25.3398218 L5.96231102,23.1039552 L8.94346653,23.1039552 L8.94346653,25.3398218 Z" id="Shape"></path>
                            <path d="M19.3775108,21.6133774 L14.9057775,21.6133774 C14.4936328,21.6133774 14.1604887,21.9465216 14.1604887,22.3586663 L14.1604887,26.0851107 C14.1604887,26.4972554 14.4936328,26.8303996 14.9057775,26.8303996 L19.3775108,26.8303996 C19.7896556,26.8303996 20.1227997,26.4972554 20.1227997,26.0851107 L20.1227997,22.3586663 C20.1227997,21.9465216 19.7896556,21.6133774 19.3775108,21.6133774 Z M18.6322219,25.3398218 L15.6510664,25.3398218 L15.6510664,23.1039552 L18.6322219,23.1039552 L18.6322219,25.3398218 Z" id="Shape"></path>
                            <path d="M29.8115551,21.6133774 L25.3398218,21.6133774 C24.9276771,21.6133774 24.5945329,21.9465216 24.5945329,22.3586663 L24.5945329,26.0851107 C24.5945329,26.4972554 24.9276771,26.8303996 25.3398218,26.8303996 L29.8115551,26.8303996 C30.2236998,26.8303996 30.556844,26.4972554 30.556844,26.0851107 L30.556844,22.3586663 C30.556844,21.9465216 30.2236998,21.6133774 29.8115551,21.6133774 Z M29.0662662,25.3398218 L26.0851107,25.3398218 L26.0851107,23.1039552 L29.0662662,23.1039552 L29.0662662,25.3398218 Z" id="Shape"></path>
                            <path d="M39.5003105,21.6133774 L35.0285772,21.6133774 C34.6164325,21.6133774 34.2832883,21.9465216 34.2832883,22.3586663 L34.2832883,26.0851107 C34.2832883,26.4972554 34.6164325,26.8303996 35.0285772,26.8303996 L39.5003105,26.8303996 C39.9124552,26.8303996 40.2455994,26.4972554 40.2455994,26.0851107 L40.2455994,22.3586663 C40.2455994,21.9465216 39.9124552,21.6133774 39.5003105,21.6133774 Z M38.7550216,25.3398218 L35.7738661,25.3398218 L35.7738661,23.1039552 L38.7550216,23.1039552 L38.7550216,25.3398218 Z" id="Shape"></path>
                            <path d="M9.6887554,29.0662662 L5.21702214,29.0662662 C4.80487739,29.0662662 4.47173326,29.3994103 4.47173326,29.8115551 L4.47173326,33.5379995 C4.47173326,33.9501442 4.80487739,34.2832883 5.21702214,34.2832883 L9.6887554,34.2832883 C10.1009002,34.2832883 10.4340443,33.9501442 10.4340443,33.5379995 L10.4340443,29.8115551 C10.4340443,29.3994103 10.1009002,29.0662662 9.6887554,29.0662662 Z M8.94346653,32.7927106 L5.96231102,32.7927106 L5.96231102,30.556844 L8.94346653,30.556844 L8.94346653,32.7927106 Z" id="Shape"></path>
                            <path d="M19.3775108,29.0662662 L14.9057775,29.0662662 C14.4936328,29.0662662 14.1604887,29.3994103 14.1604887,29.8115551 L14.1604887,33.5379995 C14.1604887,33.9501442 14.4936328,34.2832883 14.9057775,34.2832883 L19.3775108,34.2832883 C19.7896556,34.2832883 20.1227997,33.9501442 20.1227997,33.5379995 L20.1227997,29.8115551 C20.1227997,29.3994103 19.7896556,29.0662662 19.3775108,29.0662662 Z M18.6322219,32.7927106 L15.6510664,32.7927106 L15.6510664,30.556844 L18.6322219,30.556844 L18.6322219,32.7927106 Z" id="Shape"></path>
                            <path d="M29.8115551,29.0662662 L25.3398218,29.0662662 C24.9276771,29.0662662 24.5945329,29.3994103 24.5945329,29.8115551 L24.5945329,33.5379995 C24.5945329,33.9501442 24.9276771,34.2832883 25.3398218,34.2832883 L29.8115551,34.2832883 C30.2236998,34.2832883 30.556844,33.9501442 30.556844,33.5379995 L30.556844,29.8115551 C30.556844,29.3994103 30.2236998,29.0662662 29.8115551,29.0662662 Z M29.0662662,32.7927106 L26.0851107,32.7927106 L26.0851107,30.556844 L29.0662662,30.556844 L29.0662662,32.7927106 Z" id="Shape"></path>
                            <path d="M39.5003105,29.0662662 L35.0285772,29.0662662 C34.6164325,29.0662662 34.2832883,29.3994103 34.2832883,29.8115551 L34.2832883,33.5379995 C34.2832883,33.9501442 34.6164325,34.2832883 35.0285772,34.2832883 L39.5003105,34.2832883 C39.9124552,34.2832883 40.2455994,33.9501442 40.2455994,33.5379995 L40.2455994,29.8115551 C40.2455994,29.3994103 39.9124552,29.0662662 39.5003105,29.0662662 Z M38.7550216,32.7927106 L35.7738661,32.7927106 L35.7738661,30.556844 L38.7550216,30.556844 L38.7550216,32.7927106 Z" id="Shape"></path>
                            <path d="M9.6887554,36.519155 L5.21702214,36.519155 C4.80487739,36.519155 4.47173326,36.8522991 4.47173326,37.2644439 L4.47173326,40.9908882 C4.47173326,41.403033 4.80487739,41.7361771 5.21702214,41.7361771 L9.6887554,41.7361771 C10.1009002,41.7361771 10.4340443,41.403033 10.4340443,40.9908882 L10.4340443,37.2644439 C10.4340443,36.8522991 10.1009002,36.519155 9.6887554,36.519155 Z M8.94346653,40.2455994 L5.96231102,40.2455994 L5.96231102,38.0097327 L8.94346653,38.0097327 L8.94346653,40.2455994 Z" id="Shape"></path>
                            <path d="M19.3775108,36.519155 L14.9057775,36.519155 C14.4936328,36.519155 14.1604887,36.8522991 14.1604887,37.2644439 L14.1604887,40.9908882 C14.1604887,41.403033 14.4936328,41.7361771 14.9057775,41.7361771 L19.3775108,41.7361771 C19.7896556,41.7361771 20.1227997,41.403033 20.1227997,40.9908882 L20.1227997,37.2644439 C20.1227997,36.8522991 19.7896556,36.519155 19.3775108,36.519155 Z M18.6322219,40.2455994 L15.6510664,40.2455994 L15.6510664,38.0097327 L18.6322219,38.0097327 L18.6322219,40.2455994 Z" id="Shape"></path>
                            <path d="M29.9844621,36.0421701 L26.7804652,39.8871154 L25.1214522,38.2281024 L24.0676137,39.2819408 L26.3034803,41.5178075 C26.4428494,41.6586671 26.632898,41.7361771 26.8303996,41.7361771 C26.8415789,41.7361771 26.8527582,41.7361771 26.8639376,41.7354318 C27.0733638,41.7257431 27.2686294,41.6288555 27.4035267,41.4686184 L31.1299711,36.9968851 L29.9844621,36.0421701 Z" id="Shape"></path>
                            <path d="M38.9279286,36.0421701 L35.7239317,39.8871154 L34.0649187,38.2281024 L33.0110802,39.2819408 L35.2469469,41.5178075 C35.3863159,41.6586671 35.5763645,41.7361771 35.7738661,41.7361771 C35.7850454,41.7361771 35.7962248,41.7361771 35.8074041,41.7354318 C36.0168303,41.7257431 36.212096,41.6288555 36.3469932,41.4686184 L40.0734376,36.9968851 L38.9279286,36.0421701 Z" id="Shape"></path>
                        </g>
                    </g>
                </g>
            </g>
        </g>
    </g>
</svg>