<?xml version="1.0" encoding="UTF-8"?>
<svg width="54px" height="48px" viewBox="0 0 54 48" version="1.1" xmlns="http://www.w3.org/2000/svg" xmlns:xlink="http://www.w3.org/1999/xlink">
    <!-- Generator: Sketch 46.2 (44496) - http://www.bohemiancoding.com/sketch -->
    <title>Shape</title>
    <desc>Created with Sketch.</desc>
    <defs></defs>
    <g id="Welcome" stroke="none" stroke-width="1" fill="none" fill-rule="evenodd">
        <g id="imassage-store" transform="translate(-924.000000, -2082.000000)" fill="#E33A36">
            <g id="help" transform="translate(0.000000, 1581.000000)">
                <g id="Group" transform="translate(407.000000, 257.000000)">
                    <g id="_2" transform="translate(0.000000, 244.000000)">
                        <g id="Group" transform="translate(422.000000, 0.000000)">
                            <path d="M102.21472,37.29 C101.855467,37.2881372 101.510288,37.4295461 101.255598,37.6829224 C101.000908,37.9362987 100.857716,38.2807416 100.85772,38.64 L100.85772,42.38 C100.863784,45.4844481 103.381267,47.998352 106.48572,48 L137.47072,48 C140.574784,47.9978009 143.091658,45.484058 143.09772,42.38 L143.09772,19.52 L146.65072,23.07 C146.904587,23.326 147.250187,23.47 147.61072,23.47 C147.971254,23.47 148.316854,23.326 148.57072,23.07 C148.825129,22.8173177 148.9682,22.4735693 148.9682,22.115 C148.9682,21.7564307 148.825129,21.4126823 148.57072,21.16 L142.71172,15.31 C142.177613,14.7999023 141.336828,14.7999023 140.80272,15.31 L134.94372,21.16 C134.416289,21.6871558 134.416065,22.5420679 134.943221,23.0694997 C135.470376,23.5969315 136.325288,23.5971555 136.85272,23.07 L140.40572,19.52 L140.40572,42.38 C140.402414,43.9928611 139.094585,45.298901 137.48172,45.3 L106.48172,45.3 C104.868693,45.2989024 103.560578,43.9930228 103.55672,42.38 L103.55672,38.64 C103.558381,37.8968503 102.957867,37.2927567 102.21472,37.29 L102.21472,37.29 Z M102.21472,33.09 C102.574489,33.0862253 102.918712,32.9427987 103.17472,32.69 L109.03472,26.84 C109.562152,26.3128442 109.562376,25.4579319 109.03522,24.9305 C108.508065,24.4030681 107.653152,24.4028442 107.12572,24.93 L103.57272,28.48 L103.57272,5.62 C103.576027,4.00713886 104.883856,2.70109905 106.49672,2.7 L137.48172,2.7 C139.094585,2.70109905 140.402414,4.00713886 140.40572,5.62 L140.40572,9.36 C140.40572,10.1094504 141.01327,10.717 141.76272,10.717 C142.512171,10.717 143.11972,10.1094504 143.11972,9.36 L143.11972,5.62 C143.113658,2.515942 140.596784,0.00219906124 137.49272,0 L106.48572,0 C103.381267,0.00164802206 100.863784,2.51555193 100.85772,5.62 L100.85772,28.48 L97.3047204,24.93 C96.7772885,24.4028442 95.9223762,24.4030681 95.3952204,24.9305 C94.8680647,25.4579319 94.8682885,26.3128442 95.3957204,26.84 L101.25472,32.69 C101.509584,32.9445147 101.85454,33.0882465 102.21472,33.09 L102.21472,33.09 Z M122.452,26.0330098 C126.29768,25.9206185 129.335942,22.7329585 129.263748,18.8863144 C129.191554,15.0396702 126.035822,11.9682592 122.188633,12.0002476 C118.341444,12.032236 115.23722,15.155697 115.229,19.0030098 C115.284406,22.937959 118.516993,26.0841713 122.452,26.0330098 L122.452,26.0330098 Z M122.452,13.8330098 C125.292592,13.9098566 127.540294,16.262007 127.488125,19.1031597 C127.435956,21.9443124 125.103419,24.2123612 122.261921,24.1848742 C119.420422,24.1573873 117.132197,21.8446401 117.135,19.0030098 C117.185403,16.11134 119.560054,13.8023414 122.452,13.8330098 L122.452,13.8330098 Z M109.952,37.0030098 L135.033,37.0030098 C135.283124,37.0078332 135.524728,36.9121132 135.703681,36.7372958 C135.882634,36.5624785 135.983975,36.3231782 135.985,36.0730098 C135.909873,31.1401817 131.855985,27.1990265 126.923,27.2630098 L118.061,27.2630098 C113.128623,27.2001356 109.075675,31.1408129 109,36.0730098 C109.001005,36.3238868 109.102895,36.5638119 109.282721,36.7387479 C109.462548,36.913684 109.705191,37.0089212 109.956,37.0030098 L109.952,37.0030098 Z M118.061,29.1130098 L126.923,29.1130098 C130.463117,29.0731324 133.489766,31.6515472 134.013,35.1530098 L110.975,35.1530098 C111.505921,31.6558198 114.52788,29.0814001 118.065,29.1130098 L118.061,29.1130098 Z" id="Shape"></path>
                        </g>
                    </g>
                </g>
            </g>
        </g>
    </g>
</svg>