<?xml version="1.0" encoding="UTF-8"?>
<svg width="49px" height="44px" viewBox="0 0 49 44" version="1.1" xmlns="http://www.w3.org/2000/svg" xmlns:xlink="http://www.w3.org/1999/xlink">
    <!-- Generator: Sketch 46.2 (44496) - http://www.bohemiancoding.com/sketch -->
    <title>low</title>
    <desc>Created with Sketch.</desc>
    <defs></defs>
    <g id="Welcome" stroke="none" stroke-width="1" fill="none" fill-rule="evenodd">
        <g id="imassage-store" transform="translate(-376.000000, -2646.000000)" fill="#E33A36">
            <g id="benifits" transform="translate(375.000000, 2402.000000)">
                <g id="list" transform="translate(0.000000, 238.000000)">
                    <g id="b1-copy-4" transform="translate(1.000000, 0.000000)">
                        <g id="low" transform="translate(0.000000, 6.000000)">
                            <path d="M45.2156923,0 L3.78732308,0 C1.69317503,0.00543866121 -0.00125423694,1.71603016 2.62354241e-13,3.82344828 L2.62354241e-13,28.5772414 C0.00207202765,30.6820433 1.69577209,32.3885061 3.78732308,32.3931034 L19.1303538,32.3931034 C19.5279564,32.3931034 19.8502769,32.0687415 19.8502769,31.6686207 C19.8502769,31.2684999 19.5279564,30.9441379 19.1303538,30.9441379 L3.78732308,30.9441379 C2.48987172,30.9416289 1.43916723,29.8829124 1.43833846,28.5772414 L1.43833846,3.82344828 C1.4358373,2.51516167 2.48727229,1.45231339 3.78732308,1.44896552 L45.2156923,1.44896552 C46.5139747,1.45481816 47.5626604,2.5169324 47.5601538,3.82344828 L47.5601538,28.5772414 C47.5601538,28.9773622 47.8824744,29.3017241 48.2800769,29.3017241 C48.6776795,29.3017241 49,28.9773622 49,28.5772414 L49,3.82344828 C49.0025033,1.71669432 47.3091804,0.00585756743 45.2156923,0 Z M19.8970154,25.5275862 L6.08881538,25.5275862 C5.69121304,25.5275865 5.36889279,25.8519484 5.36889279,26.252069 C5.36889279,26.6521896 5.69121304,26.9765515 6.08881538,26.9765517 L19.8970154,26.9765517 C20.2946177,26.9765513 20.6169378,26.6521895 20.6169378,26.252069 C20.6169378,25.8519485 20.2946177,25.5275866 19.8970154,25.5275862 L19.8970154,25.5275862 Z M14.4791231,12.3275862 L14.4791231,9.23241379 C14.478292,7.98032236 13.4700877,6.96539309 12.2258769,6.96413793 L7.62741538,6.96413793 C6.38291019,6.96497481 5.374247,7.98002644 5.37341538,9.23241379 L5.37341538,12.3275862 C5.37340846,13.5815535 6.38134714,14.5992684 7.62741538,14.6034483 L12.2258769,14.6034483 C13.4716506,14.5988515 14.4791315,13.5812585 14.4791231,12.3275862 Z M6.80798462,12.3275862 L6.80798462,11.5082759 L7.62364615,11.5082759 C8.0212485,11.5082756 8.34356875,11.1839137 8.34356875,10.7837931 C8.34356875,10.3836725 8.0212485,10.0593106 7.62364615,10.0593103 L6.80798462,10.0593103 L6.80798462,9.23241379 C6.81046341,8.78036696 7.17444056,8.41476159 7.62364615,8.41310345 L9.20672308,8.41310345 L9.20672308,13.1544828 L7.62364615,13.1544828 C7.17184929,13.1519762 6.80714723,12.7822507 6.80798462,12.3275862 Z M12.2258769,13.1544828 L10.6428,13.1544828 L10.6428,8.41310345 L12.2258769,8.41310345 C12.6749586,8.41476476 13.0387181,8.78048959 13.0407846,9.23241379 L13.0407846,10.0593103 L12.2258769,10.0593103 C11.8282746,10.0593106 11.5059543,10.3836725 11.5059543,10.7837931 C11.5059543,11.1839137 11.8282746,11.5082756 12.2258769,11.5082759 L13.0415385,11.5082759 L13.0415385,12.3275862 C13.0427906,12.7824221 12.6778472,13.1523923 12.2258769,13.1544828 L12.2258769,13.1544828 Z M5.36964615,21.6131034 C5.36964607,21.8716652 5.50671893,22.1105862 5.7292307,22.2398671 C5.95174247,22.3691481 6.2258883,22.3691481 6.44840007,22.2398671 C6.67091184,22.1105862 6.8079847,21.8716652 6.80798462,21.6131034 L6.80798462,20.0655172 C6.80798462,19.6658154 6.48600158,19.3417931 6.08881538,19.3417931 C5.69162919,19.3417931 5.36964615,19.6658154 5.36964615,20.0655172 L5.36964615,21.6131034 L5.36964615,21.6131034 Z M7.67113846,20.0655172 L7.67113846,21.6131034 C7.67113846,22.0128053 7.99312149,22.3368276 8.39030769,22.3368276 C8.78749389,22.3368276 9.10947692,22.0128053 9.10947692,21.6131034 L9.10947692,20.0655172 C9.10947705,19.8069554 8.97240419,19.5680344 8.74989241,19.4387535 C8.52738062,19.3094725 8.25323476,19.3094725 8.03072298,19.4387535 C7.80821119,19.5680344 7.67113834,19.8069554 7.67113846,20.0655172 L7.67113846,20.0655172 Z M9.97263077,20.0655172 L9.97263077,21.6131034 C9.97263077,22.0128053 10.2946138,22.3368276 10.6918,22.3368276 C11.0889862,22.3368276 11.4109692,22.0128053 11.4109692,21.6131034 L11.4109692,20.0655172 C11.4109694,19.8069554 11.2738965,19.5680344 11.0513847,19.4387535 C10.8288729,19.3094725 10.5547271,19.3094725 10.3322153,19.4387535 C10.1097035,19.5680344 9.97263065,19.8069554 9.97263077,20.0655172 L9.97263077,20.0655172 Z M12.2741231,20.0655172 L12.2741231,21.6131034 C12.2741231,22.0128053 12.5961061,22.3368276 12.9932923,22.3368276 C13.3904785,22.3368276 13.7124615,22.0128053 13.7124615,21.6131034 L13.7124615,20.0655172 C13.7124617,19.8069554 13.5753888,19.5680344 13.352877,19.4387535 C13.1303652,19.3094725 12.8562194,19.3094725 12.6337076,19.4387535 C12.4111958,19.5680344 12.274123,19.8069554 12.2741231,20.0655172 L12.2741231,20.0655172 Z M16.7806154,21.6131034 L16.7806154,20.0655172 C16.7806154,19.6658154 16.4586324,19.3417931 16.0614462,19.3417931 C15.66426,19.3417931 15.3422769,19.6658154 15.3422769,20.0655172 L15.3422769,21.6131034 C15.3422769,22.0128053 15.66426,22.3368276 16.0614462,22.3368276 C16.4586324,22.3368276 16.7806154,22.0128053 16.7806154,21.6131034 L16.7806154,21.6131034 Z M19.0821077,21.6131034 L19.0821077,20.0655172 C19.0821077,19.6658154 18.7601247,19.3417931 18.3629385,19.3417931 C17.9657523,19.3417931 17.6437692,19.6658154 17.6437692,20.0655172 L17.6437692,21.6131034 C17.6437692,22.0128053 17.9657523,22.3368276 18.3629385,22.3368276 C18.7601247,22.3368276 19.0821077,22.0128053 19.0821077,21.6131034 L19.0821077,21.6131034 Z M20.6651846,19.3372414 C20.473849,19.337844 20.290588,19.4149117 20.1557174,19.5514901 C20.0208468,19.6880685 19.9454146,19.8729698 19.9460154,20.0655172 L19.9460154,21.6131034 C19.9460154,22.0128053 20.2679984,22.3368276 20.6651846,22.3368276 C21.0623708,22.3368276 21.3843538,22.0128053 21.3843538,21.6131034 L21.3843538,20.0655172 C21.3849545,19.8728387 21.3094189,19.6878226 21.1743854,19.5512224 C21.0393519,19.4146221 20.8558972,19.3376431 20.6644308,19.3372414 L20.6651846,19.3372414 Z M23.6866,21.6131034 L23.6866,20.0655172 C23.6951016,19.8012308 23.5598467,19.5532749 23.3337196,19.4186 C23.1075926,19.2839251 22.8265151,19.2839251 22.6003881,19.4186 C22.374261,19.5532749 22.2390061,19.8012308 22.2475077,20.0655172 L22.2475077,21.6131034 C22.2353806,21.8795705 22.3697395,22.1311889 22.5972462,22.2680706 C22.8247529,22.4049524 23.1086009,22.4049524 23.3361077,22.2680706 C23.5636144,22.1311889 23.6979732,21.8795705 23.6858462,21.6131034 L23.6866,21.6131034 Z M39.8415231,14.6034483 C41.9377836,14.6034483 43.6371385,12.8933304 43.6371385,10.7837931 C43.6371385,8.6742558 41.9377836,6.96413793 39.8415231,6.96413793 L35.2430615,6.96413793 C33.146801,6.96413793 31.4474462,8.6742558 31.4474462,10.7837931 C31.4474462,12.8933304 33.146801,14.6034483 35.2430615,14.6034483 L39.8415231,14.6034483 Z M32.8910615,10.78 C32.8927228,9.47349224 33.9447766,8.41477525 35.2430615,8.41310345 L39.8415231,8.41310345 C41.1425785,8.41310345 42.1972923,9.47449736 42.1972923,10.7837931 C42.1972923,12.0930888 41.1425785,13.1544828 39.8415231,13.1544828 L35.2430615,13.1544828 C33.9418839,13.1523894 32.8886411,12.0894193 32.8903077,10.78 L32.8910615,10.78 Z M33.7052154,19.3372414 C28.7469844,19.326498 24.2709636,22.3237104 22.3657769,26.9303041 C20.4605901,31.5368977 21.5017573,36.8448942 25.0034438,40.377449 C28.5051303,43.9100038 33.7771393,44.9708361 38.3594191,43.0649347 C42.9416989,41.1590334 45.9310634,36.6620594 45.9326,31.6724138 C45.9317904,24.8717686 40.462284,19.3543872 33.7044615,19.3372414 L33.7052154,19.3372414 Z M33.7052154,42.5510345 C29.3308699,42.5602438 25.38216,39.9155999 23.7018256,35.8512755 C22.0214912,31.7869512 22.9407714,27.1041346 26.030667,23.9881502 C29.1205625,20.8721658 33.7719715,19.9372582 37.8142263,21.6197198 C41.8564812,23.3021814 44.4927443,27.2703535 44.4927538,31.6724138 C44.4906929,37.6710659 39.6653435,42.5368171 33.7044615,42.5510345 L33.7052154,42.5510345 Z M39.5852154,25.74 C39.3032677,25.4594354 38.8494707,25.4594354 38.5675231,25.74 L27.8252154,36.5731034 C27.5464166,36.8568368 27.5464166,37.313508 27.8252154,37.5972414 C27.9605792,37.7347927 28.1454684,37.8114057 28.3378308,37.8096552 C28.5279576,37.81127 28.7104595,37.7345175 28.8429077,37.5972414 L39.5852154,26.7641379 C39.8638055,26.4801968 39.8634693,26.0235255 39.5844615,25.74 L39.5852154,25.74 Z M30.2526,30.8455172 C31.6336456,30.8501235 32.8811813,30.0162747 33.4125071,28.7334458 C33.9438329,27.4506168 33.6540953,25.971965 32.6786253,24.9881401 C31.7031553,24.0043153 30.234455,23.7094684 28.9585261,24.2413168 C27.6825972,24.7731652 26.8512354,26.0267524 26.8527538,27.4165517 C26.856054,29.3056857 28.3746154,30.8375931 30.2518462,30.8455172 L30.2526,30.8455172 Z M30.2526,25.4365517 C31.3392415,25.4365517 32.2201385,26.3230279 32.2201385,27.4165517 C32.2201385,28.5100755 31.3392415,29.3965517 30.2526,29.3965517 C29.1659585,29.3965517 28.2850615,28.5100755 28.2850615,27.4165517 C28.2858924,26.3236706 29.1658437,25.4378066 30.2518462,25.4365517 L30.2526,25.4365517 Z M37.9267538,31.717931 C36.5463943,31.7133271 35.299338,32.546356 34.7675723,33.8282521 C34.2358066,35.1101483 34.5241627,36.588202 35.4980678,37.5726216 C36.4719729,38.5570412 37.9394338,38.8537607 39.2156025,38.3243044 C40.4917713,37.7948481 41.3250672,36.5435916 41.3266,35.1544828 C41.3266165,33.2621424 39.806414,31.725868 37.926,31.717931 L37.9267538,31.717931 Z M37.9267538,37.1344828 C37.1287504,37.1360168 36.408546,36.6532443 36.1024587,35.9116082 C35.7963714,35.1699721 35.9647885,34.3157883 36.5290632,33.7479397 C37.0933379,33.1800911 37.9421457,33.0106074 38.6791142,33.3186334 C39.4160826,33.6266593 39.8958167,34.3514251 39.8942923,35.1544828 C39.8934604,36.2479558 39.0125913,37.1340644 37.926,37.1344828 L37.9267538,37.1344828 Z" id="Forma_1-9"></path>
                        </g>
                    </g>
                </g>
            </g>
        </g>
    </g>
</svg>